<?xml version="1.0" encoding="UTF-8" standalone="no"?>
<svg
   xmlns:dc="http://purl.org/dc/elements/1.1/"
   xmlns:cc="http://creativecommons.org/ns#"
   xmlns:rdf="http://www.w3.org/1999/02/22-rdf-syntax-ns#"
   xmlns:svg="http://www.w3.org/2000/svg"
   xmlns="http://www.w3.org/2000/svg"
   xmlns:sodipodi="http://sodipodi.sourceforge.net/DTD/sodipodi-0.dtd"
   xmlns:inkscape="http://www.inkscape.org/namespaces/inkscape"
   version="1.1"
   width="624"
   height="115"
   viewBox="314.57484848517583 143.36 624 115"
   xml:space="preserve"
   id="svg24"
   sodipodi:docname="built.svg"><metadata
   id="metadata28"><rdf:RDF><cc:Work
       rdf:about=""><dc:format>image/svg+xml</dc:format><dc:type
         rdf:resource="http://purl.org/dc/dcmitype/StillImage" /></cc:Work></rdf:RDF></metadata><sodipodi:namedview
   pagecolor="#ffffff"
   bordercolor="#666666"
   borderopacity="1"
   objecttolerance="10"
   gridtolerance="10"
   guidetolerance="10"
   inkscape:pageopacity="0"
   inkscape:pageshadow="2"
   inkscape:window-width="640"
   inkscape:window-height="480"
   id="namedview26" />
<desc
   id="desc2">Created with Fabric.js 5.3.0</desc>
<defs
   id="defs4">
</defs><rect
   width="100%"
   height="100%"
   fill="#ffffff"
   id="rect6" />
<g
   transform="matrix(0.31,0,0,0.31,694.39,183.41)"
   id="base_text">
		<g
   aria-label="Willemsens Airco-Ventilatie"
   id="text10"
   style="font-style:normal;font-weight:normal;font-size:120px;font-family:f16896;white-space:pre;opacity:1;fill:#333333;fill-rule:nonzero;stroke:none;stroke-width:1;stroke-linecap:butt;stroke-linejoin:miter;stroke-miterlimit:4;stroke-dasharray:none;stroke-dashoffset:0"><path
     d="m -782.57999,-36.579999 q -0.72,-2.52 -1.92,-3.84 -1.08,-1.44 -2.64,-1.92 -1.56,-0.6 -3.96,-0.6 h -1.56 v -5.04 h 33 v 5.04 h -2.76 q -3.6,0 -5.4,1.44 -1.8,1.32 -1.8,4.32 0,0.96 0.24,2.04 0.36,1.08 0.72,2.4 l 11.04,38.3999998 q 1.08,3.6 1.92,7.2000002 0.96,3.48 1.8,6.84 0.84,3.36 1.44,6.24 0.96,-4.68 2.16,-10.2 1.2,-5.64 2.76,-11.4000002 l 14.28,-51.4799998 h 8.64 l 15,51.9599998 q 1.68,5.8800002 3,11.4000002 1.32,5.52 2.16,9.72 0.6,-2.88 1.32,-5.88 0.72,-3.12 1.56,-6.48 0.84,-3.48 1.92,-7.3200002 l 10.56,-37.0799998 q 0.36,-1.44 0.84,-3.36 0.48,-1.92 0.48,-2.88 0,-3.12 -2.04,-4.44 -1.92,-1.44 -5.88,-1.44 h -2.76 v -5.04 h 29.28 v 5.04 h -2.28 q -2.28,0 -3.96,0.72 -1.56,0.6 -2.76,2.64 -1.2,2.04 -2.4,6 l -20.28,71.28 h -10.8 l -19.56,-67.2 -18.36,67.2 h -11.04 z"
     id="path30" /><path
     d="m -665.34011,37.700001 v -5.04 h 1.56 q 2.64,0 4.8,-0.48 2.28,-0.6 3.6,-2.28 1.44,-1.8 1.44,-5.28 v -38.04 q 0,-3.6 -1.44,-5.28 -1.32,-1.8 -3.6,-2.28 -2.16,-0.6 -4.8,-0.6 h -0.36 v -5.04 h 21.48 v 50.64 q 0,3.72 1.32,5.64 1.32,1.8 3.6,2.4 2.28,0.6 4.92,0.6 h 1.56 v 5.04 z m 16.56,-76.32 q -2.88,0 -4.92,-1.68 -1.92,-1.68 -1.92,-5.76 0,-4.2 1.92,-5.76 2.04,-1.68 4.92,-1.68 2.76,0 4.8,1.68 2.04,1.56 2.04,5.76 0,4.08 -2.04,5.76 -2.04,1.68 -4.8,1.68 z"
     id="path32" /><path
     d="m -628.14015,37.700001 v -5.04 h 1.56 q 2.76,0 4.92,-0.6 2.28,-0.6 3.6,-2.4 1.32,-1.92 1.32,-5.64 v -64.32 q 0,-3.6 -1.44,-5.28 -1.32,-1.8 -3.6,-2.28 -2.16,-0.6 -4.8,-0.6 h -1.56 v -5.04 h 22.68 v 77.52 q 0,3.72 1.32,5.64 1.32,1.8 3.6,2.4 2.28,0.6 4.92,0.6 h 1.56 v 5.04 z"
     id="path34" /><path
     d="m -590.94021,37.700001 v -5.04 h 1.56 q 2.76,0 4.92,-0.6 2.28,-0.6 3.6,-2.4 1.32,-1.92 1.32,-5.64 v -64.32 q 0,-3.6 -1.44,-5.28 -1.32,-1.8 -3.6,-2.28 -2.16,-0.6 -4.8,-0.6 h -1.56 v -5.04 h 22.68 v 77.52 q 0,3.72 1.32,5.64 1.32,1.8 3.6,2.4 2.28,0.6 4.92,0.6 h 1.56 v 5.04 z"
     id="path36" /><path
     d="m -520.86028,38.900001 q -13.08,0 -20.52,-8.64 -7.32,-8.64 -7.32,-24.2400002 0,-16.7999998 6.96,-25.3199998 6.96,-8.52 19.68,-8.52 11.64,0 18.24,7.2 6.72,7.2 6.72,21.47999976 V 6.3800008 h -39.96 q 0.24,13.0800002 4.68,19.0800002 4.56,5.88 13.2,5.88 6.24,0 10.56,-2.52 4.44,-2.64 6.6,-5.88 0.84,0.36 1.56,1.44 0.72,1.08 0.72,2.64 0,2.4 -2.28,5.16 -2.28,2.76 -6.96,4.8 -4.68,1.92 -11.88,1.92 z m 11.64,-39.00000024 q 0,-9.59999996 -3,-15.35999976 -2.88,-5.88 -10.08,-5.88 -6.6,0 -10.32,5.52 -3.6,5.4 -4.2,15.71999976 z"
     id="path38" /><path
     d="m -487.74028,37.700001 v -5.04 h 1.56 q 2.76,0 4.8,-0.6 2.04,-0.6 3.24,-2.4 1.2,-1.92 1.2,-5.64 v -37.44 q 0,-3.6 -1.2,-5.28 -1.2,-1.8 -3.36,-2.28 -2.04,-0.6 -4.68,-0.6 h -0.36 v -5.04 h 18.84 l 1.56,9.72 h 0.6 q 2.4,-4.56 5.16,-6.84 2.76,-2.4 6,-3.24 3.24,-0.84 6.96,-0.84 3.84,0 7.2,1.08 3.48,1.08 6.12,3.48 2.64,2.28 4.08,6.36 h 0.96 q 2.4,-4.56 5.28,-6.84 3,-2.4 6.36,-3.24 3.48,-0.84 7.2,-0.84 9.24,0 14.4,5.64 5.16,5.52 5.16,17.8799998 V 24.020001 q 0,3.72 1.2,5.64 1.2,1.8 3.24,2.4 2.16,0.6 4.8,0.6 h 0.36 v 5.04 h -20.88 V -3.6999992 q 0,-7.7999998 -2.88,-12.1199998 -2.76,-4.32 -9.72,-4.32 -4.92,0 -7.92,2.52 -2.88,2.4 -4.2,6.48 -1.2,4.0799998 -1.2,8.8799998 V 24.020001 q 0,3.72 1.2,5.64 1.2,1.8 3.24,2.4 2.16,0.6 4.8,0.6 h 0.36 v 5.04 h -20.88 V -3.6999992 q 0,-7.7999998 -2.88,-12.1199998 -2.76,-4.32 -9.72,-4.32 -5.16,0 -8.28,2.76 -3,2.64 -4.32,7.08 -1.32,4.4399998 -1.32,9.59999976 V 24.620001 q 0,3.48 1.32,5.28 1.44,1.68 3.6,2.28 2.28,0.48 4.92,0.48 h 0.36 v 5.04 z"
     id="path40" /><path
     d="m -352.50032,38.900001 q -6,0 -10.44,-1.44 -4.44,-1.44 -6.96,-4.2 -2.4,-2.88 -2.4,-7.08 0,-3.24 1.32,-5.04 1.32,-1.8 3,-2.52 1.8,-0.72 3.24,-0.72 0,6.24 2.76,10.8 2.88,4.44 10.2,4.44 6.36,0 9.72,-3 3.48,-3.12 3.48,-7.92 0,-3 -1.32,-4.92 -1.2,-1.92 -4.44,-3.72 -3.12,-1.92 -9,-4.4400002 -6.12,-2.76 -10.2,-5.28 -3.96,-2.64 -6,-6 -1.92,-3.48 -1.92,-8.6399998 0,-8.16 6.12,-12.48 6.24,-4.44 16.44,-4.44 5.76,0 9.6,1.56 3.96,1.44 5.88,3.96 2.04,2.52 2.04,5.52 0,3.24 -2.28,5.28 -2.16,1.9199998 -6.36,1.9199998 0,-5.9999998 -2.52,-9.3599998 -2.52,-3.36 -7.8,-3.36 -6.12,0 -8.76,2.76 -2.64,2.64 -2.64,6.84 0,2.9999998 1.44,5.0399998 1.56,2.04 4.8,3.84 3.36,1.68 8.64,3.83999996 6.36,2.64000004 10.32,5.28000004 3.96,2.64 5.76,6.1200002 1.92,3.48 1.92,8.52 0,9.36 -6.48,14.16 -6.48,4.68 -17.16,4.68 z"
     id="path42" /><path
     d="m -289.14054,38.900001 q -13.08,0 -20.52,-8.64 -7.32,-8.64 -7.32,-24.2400002 0,-16.7999998 6.96,-25.3199998 6.96,-8.52 19.68,-8.52 11.64,0 18.24,7.2 6.72,7.2 6.72,21.47999976 V 6.3800008 h -39.96 q 0.24,13.0800002 4.68,19.0800002 4.56,5.88 13.2,5.88 6.24,0 10.56,-2.52 4.44,-2.64 6.6,-5.88 0.84,0.36 1.56,1.44 0.72,1.08 0.72,2.64 0,2.4 -2.28,5.16 -2.28,2.76 -6.96,4.8 -4.68,1.92 -11.88,1.92 z m 11.64,-39.00000024 q 0,-9.59999996 -3,-15.35999976 -2.88,-5.88 -10.08,-5.88 -6.6,0 -10.32,5.52 -3.6,5.4 -4.2,15.71999976 z"
     id="path44" /><path
     d="m -256.02055,37.700001 v -5.04 h 0.96 q 2.76,0 4.92,-0.6 2.28,-0.6 3.6,-2.4 1.32,-1.92 1.32,-5.64 v -37.44 q 0,-3.6 -1.32,-5.28 -1.32,-1.8 -3.48,-2.28 -2.16,-0.6 -4.8,-0.6 h -0.6 v -5.04 h 19.44 l 1.56,9.72 h 0.6 q 2.52,-4.56 5.28,-6.84 2.88,-2.4 6.24,-3.24 3.36,-0.84 7.2,-0.84 9.48,0 14.76,5.64 5.4,5.52 5.4,17.8799998 V 24.020001 q 0,3.72 1.08,5.64 1.2,1.8 3.24,2.4 2.04,0.6 4.68,0.6 h 0.6 v 5.04 h -20.88 V -3.6999992 q 0,-7.7999998 -3,-12.1199998 -2.88,-4.32 -10.2,-4.32 -5.4,0 -8.64,2.76 -3.12,2.64 -4.56,7.08 -1.32,4.4399998 -1.32,9.59999976 V 24.620001 q 0,3.48 1.32,5.28 1.32,1.68 3.48,2.28 2.16,0.48 4.8,0.48 h 0.6 v 5.04 z"
     id="path46" /><path
     d="m -156.78071,38.900001 q -6,0 -10.44,-1.44 -4.44,-1.44 -6.96,-4.2 -2.4,-2.88 -2.4,-7.08 0,-3.24 1.32,-5.04 1.32,-1.8 3,-2.52 1.8,-0.72 3.24,-0.72 0,6.24 2.76,10.8 2.88,4.44 10.2,4.44 6.36,0 9.72,-3 3.48,-3.12 3.48,-7.92 0,-3 -1.32,-4.92 -1.2,-1.92 -4.44,-3.72 -3.12,-1.92 -9,-4.4400002 -6.12,-2.76 -10.2,-5.28 -3.96,-2.64 -6,-6 -1.92,-3.48 -1.92,-8.6399998 0,-8.16 6.12,-12.48 6.24,-4.44 16.44,-4.44 5.76,0 9.6,1.56 3.96,1.44 5.88,3.96 2.04,2.52 2.04,5.52 0,3.24 -2.28,5.28 -2.16,1.9199998 -6.36,1.9199998 0,-5.9999998 -2.52,-9.3599998 -2.52,-3.36 -7.8,-3.36 -6.12,0 -8.76,2.76 -2.64,2.64 -2.64,6.84 0,2.9999998 1.44,5.0399998 1.56,2.04 4.8,3.84 3.36,1.68 8.64,3.83999996 6.36,2.64000004 10.32,5.28000004 3.96,2.64 5.76,6.1200002 1.92,3.48 1.92,8.52 0,9.36 -6.48,14.16 -6.48,4.68 -17.16,4.68 z"
     id="path48" /><path
     d="m -96.901001,37.700001 v -5.04 h 2.28 q 2.4,0 3.84,-0.72 1.44,-0.72 2.64,-2.76 1.2,-2.04 2.64,-5.88 l 26.64,-71.28 h 9.36 l 27.12,74.28 q 0.96,2.52 2.04,3.96 1.08,1.32 2.64,1.92 1.56,0.48 3.84,0.48 h 1.56 v 5.04 h -33 v -5.04 h 2.76 q 3.6,0 5.4,-1.32 1.8,-1.44 1.8,-4.44 0,-0.72 -0.12,-1.32 -0.12,-0.72 -0.36,-1.44 -0.12,-0.84 -0.48,-1.68 l -4.8,-13.4400002 h -31.56 l -4.56,12.6000002 q -0.36,0.96 -0.6,1.92 -0.24,0.96 -0.36,1.8 -0.12,0.72 -0.12,1.44 0,3 1.92,4.44 2.04,1.44 6,1.44 h 2.76 v 5.04 z m 26.52,-34.6800002 h 27.12 l -7.44,-20.9999998 q -1.2,-3.6 -2.4,-6.84 -1.08,-3.24 -2.04,-6.24 -0.84,-3 -1.56,-5.88 -0.6,2.88 -1.44,5.64 -0.72,2.64 -1.68,5.64 -0.96,2.88 -2.4,6.6 z"
     id="path50" /><path
     d="m -9.5410254,37.700001 v -5.04 h 1.56 q 2.64,0 4.8,-0.48 2.28000001,-0.6 3.60000001,-2.28 1.43999999,-1.8 1.43999999,-5.28 v -38.04 q 0,-3.6 -1.43999999,-5.28 -1.32,-1.8 -3.60000001,-2.28 -2.16,-0.6 -4.8,-0.6 h -0.36 v -5.04 H 13.138975 v 50.64 q 0,3.72 1.32,5.64 1.32,1.8 3.6,2.4 2.28,0.6 4.92,0.6 h 1.56 v 5.04 z m 16.56,-76.32 q -2.88,0 -4.92,-1.68 -1.91999999,-1.68 -1.91999999,-5.76 0,-4.2 1.91999999,-5.76 2.04,-1.68 4.92,-1.68 2.76,0 4.8000004,1.68 2.04,1.56 2.04,5.76 0,4.08 -2.04,5.76 -2.0400004,1.68 -4.8000004,1.68 z"
     id="path52" /><path
     d="m 30.058938,37.700001 v -5.04 h 0.36 q 2.76,0 4.92,-0.6 2.28,-0.6 3.6,-2.4 1.32,-1.92 1.32,-5.64 v -37.44 q 0,-3.6 -1.44,-5.28 -1.32,-1.8 -3.6,-2.28 -2.16,-0.6 -4.8,-0.6 h -0.36 v -5.04 h 18.48 l 2.28,11.88 h 0.6 q 1.56,-3.6 3.36,-6.6 1.8,-3 4.8,-4.68 3,-1.8 8.28,-1.8 6.6,0 9.72,2.28 3.24,2.28 3.24,6.48 0,3.72 -2.64,6.12 -2.52,2.4 -8.52,2.4 0,-3.36 -0.6,-5.4 -0.6,-2.04 -2.04,-3 -1.32,-0.96 -3.72,-0.96 -3.36,0 -5.64,2.64 -2.28,2.64 -3.6,6.72 -1.32,4.0799998 -1.92,8.5199998 -0.6,4.32 -0.6,7.8 V 24.620001 q 0,3.48 1.32,5.28 1.44,1.68 3.6,2.28 2.28,0.48 4.92,0.48 h 3.36 v 5.04 z"
     id="path54" /><path
     d="m 116.57877,38.900001 q -7.92,0 -14.16,-3.36 -6.119996,-3.36 -9.719996,-10.56 -3.48,-7.32 -3.48,-19.0800002 0,-12.84 3.48,-20.1599998 3.6,-7.44 9.599996,-10.44 6.12,-3.12 13.68,-3.12 5.04,0 9.84,1.32 4.8,1.32 7.92,4.08 3.12,2.64 3.12,6.84 0,2.76 -1.2,4.44 -1.2,1.6799998 -3.6,2.3999998 -2.28,0.72 -5.88,0.72 0,-3.8399998 -0.96,-6.9599998 -0.84,-3.12 -3,-4.92 -2.16,-1.92 -6.24,-1.92 -4.56,0 -8.04,2.4 -3.36,2.4 -5.28,8.4 -1.8,5.9999998 -1.8,16.7999998 0,8.5200002 1.8,14.1600002 1.92,5.64 5.88,8.4 3.96,2.76 10.44,2.76 3.72,0 6.84,-1.08 3.12,-1.08 5.4,-3 2.4,-1.92 3.72,-4.32 0.96,0.72 1.44,1.92 0.6,1.08 0.6,2.76 0,2.76 -2.28,5.4 -2.28,2.64 -6.84,4.44 -4.44,1.68 -11.28,1.68 z"
     id="path56" /><path
     d="m 176.09863,38.900001 q -12.96,0 -20.4,-8.28 -7.44,-8.28 -7.44,-25.2000002 0,-16.7999998 7.08,-24.9599998 7.2,-8.28 21.12,-8.28 12.96,0 20.4,8.28 7.44,8.16 7.44,24.9599998 0,16.9200002 -7.2,25.2000002 -7.08,8.28 -21,8.28 z m 0.24,-6.24 q 6,0 9.6,-3 3.6,-3.12 5.16,-9.24 1.56,-6.12 1.56,-15.0000002 0,-13.44 -3.72,-20.1599998 -3.72,-6.72 -12.72,-6.72 -9,0 -12.72,6.72 -3.6,6.7199998 -3.6,20.1599998 0,13.4400002 3.72,20.4000002 3.72,6.84 12.72,6.84 z"
     id="path58" /><path
     d="M 213.77862,9.2600008 V 0.74000076 h 31.32 V 9.2600008 Z"
     id="path60" /><path
     d="m 258.17851,-36.579999 q -0.84,-2.52 -1.92,-3.84 -1.08,-1.44 -2.64,-1.92 -1.56,-0.6 -3.96,-0.6 h -1.56 v -5.04 h 33 v 5.04 h -2.76 q -3.6,0 -5.4,1.44 -1.8,1.32 -1.8,4.32 0,0.6 0.12,1.32 0.12,0.72 0.36,1.44 0.24,0.72 0.48,1.68 l 13.2,38.9999998 q 1.2,3.48 2.16,6.9600002 0.96,3.48 1.8,6.72 0.84,3.12 1.44,6 0.6,-2.88 1.32,-6 0.84,-3.12 1.8,-6.48 1.08,-3.4800002 2.4,-7.2000002 l 13.2,-38.1599998 q 0.36,-0.96 0.6,-1.92 0.24,-0.96 0.36,-1.8 0.12,-0.84 0.12,-1.44 0,-3.12 -2.04,-4.44 -1.92,-1.44 -5.88,-1.44 h -2.76 v -5.04 h 29.28 v 5.04 h -2.28 q -2.28,0 -3.84,0.72 -1.56,0.72 -2.76,2.76 -1.2,1.92 -2.52,5.88 l -24.84,71.28 h -8.76 z"
     id="path62" /><path
     d="m 356.33832,38.900001 q -13.08,0 -20.52,-8.64 -7.32,-8.64 -7.32,-24.2400002 0,-16.7999998 6.96,-25.3199998 6.96,-8.52 19.68,-8.52 11.64,0 18.24,7.2 6.72,7.2 6.72,21.47999976 V 6.3800008 h -39.96 q 0.24,13.0800002 4.68,19.0800002 4.56,5.88 13.2,5.88 6.24,0 10.56,-2.52 4.44,-2.64 6.6,-5.88 0.84,0.36 1.56,1.44 0.72,1.08 0.72,2.64 0,2.4 -2.28,5.16 -2.28,2.76 -6.96,4.8 -4.68,1.92 -11.88,1.92 z m 11.64,-39.00000024 q 0,-9.59999996 -3,-15.35999976 -2.88,-5.88 -10.08,-5.88 -6.6,0 -10.32,5.52 -3.6,5.4 -4.2,15.71999976 z"
     id="path64" /><path
     d="m 389.45827,37.700001 v -5.04 h 0.96 q 2.76,0 4.92,-0.6 2.28,-0.6 3.6,-2.4 1.32,-1.92 1.32,-5.64 v -37.44 q 0,-3.6 -1.32,-5.28 -1.32,-1.8 -3.48,-2.28 -2.16,-0.6 -4.8,-0.6 h -0.6 v -5.04 h 19.44 l 1.56,9.72 h 0.6 q 2.52,-4.56 5.28,-6.84 2.88,-2.4 6.24,-3.24 3.36,-0.84 7.2,-0.84 9.48,0 14.76,5.64 5.4,5.52 5.4,17.8799998 V 24.020001 q 0,3.72 1.08,5.64 1.2,1.8 3.24,2.4 2.04,0.6 4.68,0.6 h 0.6 v 5.04 h -20.88 V -3.6999992 q 0,-7.7999998 -3,-12.1199998 -2.88,-4.32 -10.2,-4.32 -5.4,0 -8.64,2.76 -3.12,2.64 -4.56,7.08 -1.32,4.4399998 -1.32,9.59999976 V 24.620001 q 0,3.48 1.32,5.28 1.32,1.68 3.48,2.28 2.16,0.48 4.8,0.48 h 0.6 v 5.04 z"
     id="path66" /><path
     d="m 492.29805,38.900001 q -9.12,0 -13.32,-4.08 -4.08,-4.2 -4.08,-14.52 v -40.08 h -9.12 v -4.8 q 2.16,0 4.8,-0.84 2.64,-0.96 4.56,-3 2.04,-2.16 3.36,-5.28 1.32,-3.12 2.16,-7.68 h 5.52 v 14.76 h 15.72 v 6.84 h -15.72 v 40.44 q 0,6.12 2.52,9 2.52,2.88 6.6,2.88 2.16,0 3.96,-0.24 1.8,-0.24 3.72,-0.6 v 5.28 q -1.56,0.72 -4.68,1.32 -3.12,0.6 -6,0.6 z"
     id="path68" /><path
     d="m 508.49804,37.700001 v -5.04 h 1.56 q 2.64,0 4.8,-0.48 2.28,-0.6 3.6,-2.28 1.44,-1.8 1.44,-5.28 v -38.04 q 0,-3.6 -1.44,-5.28 -1.32,-1.8 -3.6,-2.28 -2.16,-0.6 -4.8,-0.6 h -0.36 v -5.04 h 21.48 v 50.64 q 0,3.72 1.32,5.64 1.32,1.8 3.6,2.4 2.28,0.6 4.92,0.6 h 1.56 v 5.04 z m 16.56,-76.32 q -2.88,0 -4.92,-1.68 -1.92,-1.68 -1.92,-5.76 0,-4.2 1.92,-5.76 2.04,-1.68 4.92,-1.68 2.76,0 4.8,1.68 2.04,1.56 2.04,5.76 0,4.08 -2.04,5.76 -2.04,1.68 -4.8,1.68 z"
     id="path70" /><path
     d="m 545.69794,37.700001 v -5.04 h 1.56 q 2.76,0 4.92,-0.6 2.28,-0.6 3.6,-2.4 1.32,-1.92 1.32,-5.64 v -64.32 q 0,-3.6 -1.44,-5.28 -1.32,-1.8 -3.6,-2.28 -2.16,-0.6 -4.8,-0.6 h -1.56 v -5.04 h 22.68 v 77.52 q 0,3.72 1.32,5.64 1.32,1.8 3.6,2.4 2.28,0.6 4.92,0.6 h 1.56 v 5.04 z"
     id="path72" /><path
     d="m 605.93789,38.900001 q -5.28,0 -9.6,-2.04 -4.2,-2.16 -6.6,-6.36 -2.4,-4.32 -2.4,-10.8 0,-9.6 6.72,-14.1600002 6.84,-4.56000004 20.64,-5.04000004 l 9.96,-0.36 V -7.0599992 q 0,-4.3199998 -0.72,-7.5599998 -0.72,-3.36 -3.12,-5.28 -2.4,-1.92 -7.32,-1.92 -4.56,0 -6.96,1.68 -2.4,1.68 -3.24,4.68 -0.72,2.88 -0.72,6.7199998 -5.04,0 -7.68,-1.6799998 -2.52,-1.8 -2.52,-5.88 0,-4.2 2.88,-6.72 3,-2.52 7.92,-3.6 4.92,-1.2 10.8,-1.2 11.04,0 16.44,4.68 5.52,4.68 5.52,16.0799998 V 24.020001 q 0,3.36 0.72,5.28 0.72,1.8 2.4,2.64 1.68,0.72 4.32,0.72 h 0.36 v 5.04 h -16.2 l -1.92,-10.32 h -0.96 q -2.52,3.36 -4.92,6 -2.4,2.52 -5.64,4.08 -3.12,1.44 -8.16,1.44 z m 2.76,-7.44 q 4.92,0 8.4,-2.04 3.6,-2.04 5.52,-5.76 2.04,-3.84 2.04,-8.88 V 5.0600008 l -7.68,0.36 q -6.84,0.24 -10.8,2.04 -3.84,1.8 -5.52,5.0400002 -1.68,3.12 -1.68,7.8 0,3.72 1.08,6.24 1.08,2.4 3.24,3.72 2.16,1.2 5.4,1.2 z"
     id="path74" /><path
     d="m 677.69783,38.900001 q -9.12,0 -13.32,-4.08 -4.08,-4.2 -4.08,-14.52 v -40.08 h -9.12 v -4.8 q 2.16,0 4.8,-0.84 2.64,-0.96 4.56,-3 2.04,-2.16 3.36,-5.28 1.32,-3.12 2.16,-7.68 h 5.52 v 14.76 h 15.72 v 6.84 h -15.72 v 40.44 q 0,6.12 2.52,9 2.52,2.88 6.6,2.88 2.16,0 3.96,-0.24 1.8,-0.24 3.72,-0.6 v 5.28 q -1.56,0.72 -4.68,1.32 -3.12,0.6 -6,0.6 z"
     id="path76" /><path
     d="m 693.89782,37.700001 v -5.04 h 1.56 q 2.64,0 4.8,-0.48 2.28,-0.6 3.6,-2.28 1.44,-1.8 1.44,-5.28 v -38.04 q 0,-3.6 -1.44,-5.28 -1.32,-1.8 -3.6,-2.28 -2.16,-0.6 -4.8,-0.6 h -0.36 v -5.04 h 21.48 v 50.64 q 0,3.72 1.32,5.64 1.32,1.8 3.6,2.4 2.28,0.6 4.92,0.6 h 1.56 v 5.04 z m 16.56,-76.32 q -2.88,0 -4.92,-1.68 -1.92,-1.68 -1.92,-5.76 0,-4.2 1.92,-5.76 2.04,-1.68 4.92,-1.68 2.76,0 4.8,1.68 2.04,1.56 2.04,5.76 0,4.08 -2.04,5.76 -2.04,1.68 -4.8,1.68 z"
     id="path78" /><path
     d="m 763.97772,38.900001 q -13.08,0 -20.52,-8.64 -7.32,-8.64 -7.32,-24.2400002 0,-16.7999998 6.96,-25.3199998 6.96,-8.52 19.68,-8.52 11.64,0 18.24,7.2 6.72,7.2 6.72,21.47999976 V 6.3800008 h -39.96 q 0.24,13.0800002 4.68,19.0800002 4.56,5.88 13.2,5.88 6.24,0 10.56,-2.52 4.44,-2.64 6.6,-5.88 0.84,0.36 1.56,1.44 0.72,1.08 0.72,2.64 0,2.4 -2.28,5.16 -2.28,2.76 -6.96,4.8 -4.68,1.92 -11.88,1.92 z m 11.64,-39.00000024 q 0,-9.59999996 -3,-15.35999976 -2.88,-5.88 -10.08,-5.88 -6.6,0 -10.32,5.52 -3.6,5.4 -4.2,15.71999976 z"
     id="path80" /></g>
</g><g
   transform="matrix(0.31,0,0,0.31,642.8,223.4)"
   id="sub_text">
		<g
   aria-label="Onderhoud-Herstelling-Plaatsing"
   id="text15"
   style="font-style:normal;font-weight:normal;font-size:80px;font-family:f16896;white-space:pre;opacity:1;fill:#333333;fill-rule:nonzero;stroke:none;stroke-width:1;stroke-linecap:butt;stroke-linejoin:miter;stroke-miterlimit:4;stroke-dasharray:none;stroke-dashoffset:0"><path
     d="m -598.08001,25.929999 q -8.48,0 -14.08,-3.68 -5.6,-3.68 -8.4,-10.32 -2.72,-6.6399998 -2.72,-15.5199998 0,-8.8800002 2.72,-15.4400002 2.8,-6.56 8.4,-10.16 5.68,-3.68 14.16,-3.68 8.08,0 13.6,3.68 5.6,3.6 8.48,10.24 2.96,6.56 2.96,15.4400002 0,8.88 -2.96,15.5199998 -2.88,6.56 -8.48,10.24 -5.6,3.68 -13.68,3.68 z m 0,-4.32 q 6,0 9.52,-2.96 3.6,-3.04 5.12,-8.64 1.6,-5.5999998 1.6,-13.5199998 0,-7.9200002 -1.6,-13.5200002 -1.52,-5.6 -5.12,-8.56 -3.52,-2.96 -9.44,-2.96 -8.96,0 -12.72,6.56 -3.68,6.56 -3.68,18.4800002 0,7.92 1.6,13.5199998 1.6,5.6 5.2,8.64 3.6,2.96 9.52,2.96 z"
     id="path83" /><path
     d="m -566.16012,25.129999 v -3.36 h 0.64 q 1.84,0 3.28,-0.4 1.52,-0.4 2.4,-1.6 0.88,-1.28 0.88,-3.76 V -8.9500008 q 0,-2.4000002 -0.88,-3.5200002 -0.88,-1.2 -2.32,-1.52 -1.44,-0.4 -3.2,-0.4 h -0.4 v -3.36 h 12.96 l 1.04,6.48 h 0.4 q 1.68,-3.04 3.52,-4.56 1.92,-1.6 4.16,-2.16 2.24,-0.56 4.8,-0.56 6.32,0 9.84,3.76 3.6,3.68 3.6,11.9200002 V 16.009999 q 0,2.48 0.72,3.76 0.8,1.2 2.16,1.6 1.36,0.4 3.12,0.4 h 0.4 v 3.36 h -13.92 V -2.4700008 q 0,-5.2 -2,-8.0800002 -1.92,-2.88 -6.8,-2.88 -3.6,0 -5.76,1.84 -2.08,1.7600002 -3.04,4.7200002 -0.88,2.96 -0.88,6.39999996 V 16.409999 q 0,2.32 0.88,3.52 0.88,1.12 2.32,1.52 1.44,0.32 3.2,0.32 h 0.4 v 3.36 z"
     id="path85" /><path
     d="m -496.08023,25.929999 q -5.28,0 -8.96,-2.32 -3.6,-2.32 -5.52,-7.2 -1.84,-4.96 -1.84,-12.6399998 0,-7.76 1.84,-12.64 1.92,-4.9600002 5.52,-7.2800002 3.68,-2.4 8.96,-2.4 4.64,0 7.52,2 2.96,1.92 4.72,5.04 h 0.48 q -0.24,-2 -0.4,-4.4 -0.08,-2.48 -0.08,-4.4 v -6.56 q 0,-2.4 -0.96,-3.52 -0.88,-1.2 -2.4,-1.52 -1.44,-0.4 -3.2,-0.4 h -0.64 v -3.36 h 14.72 v 52 q 0,2.32 0.88,3.52 0.96,1.2 2.4,1.6 1.52,0.32 3.28,0.32 h 0.64 v 3.36 h -13.52 l -0.88,-7.2 h -0.32 q -1.76,3.68 -4.64,5.84 -2.88,2.16 -7.6,2.16 z m 1.36,-5.12 q 6.24,0 8.56,-4.16 2.32,-4.24 2.32,-12.8799998 0,-8.32 -2.32,-12.72 -2.32,-4.4800002 -8.64,-4.4800002 -3.52,0 -5.68,2 -2.16,2.0000002 -3.2,5.8400002 -0.96,3.84 -0.96,9.44 0,8.4799998 2.24,12.7199998 2.32,4.24 7.68,4.24 z"
     id="path87" /><path
     d="m -444.72036,25.929999 q -8.72,0 -13.68,-5.76 -4.88,-5.76 -4.88,-16.1599998 0,-11.2 4.64,-16.8800002 4.64,-5.68 13.12,-5.68 7.76,0 12.16,4.8 4.48,4.8000002 4.48,14.32000016 V 4.2499992 h -26.64 q 0.16,8.7199998 3.12,12.7199998 3.04,3.92 8.8,3.92 4.16,0 7.04,-1.68 2.96,-1.76 4.4,-3.92 0.56,0.24 1.04,0.96 0.48,0.72 0.48,1.76 0,1.6 -1.52,3.44 -1.52,1.84 -4.64,3.2 -3.12,1.28 -7.92,1.28 z m 7.76,-25.99999984 q 0,-6.39999996 -2,-10.24000016 -1.92,-3.92 -6.72,-3.92 -4.4,0 -6.88,3.68 -2.4,3.6000002 -2.8,10.48000016 z"
     id="path89" /><path
     d="m -422.24037,25.129999 v -3.36 h 0.24 q 1.84,0 3.28,-0.4 1.52,-0.4 2.4,-1.6 0.88,-1.28 0.88,-3.76 V -8.9500008 q 0,-2.4000002 -0.96,-3.5200002 -0.88,-1.2 -2.4,-1.52 -1.44,-0.4 -3.2,-0.4 h -0.24 v -3.36 h 12.32 l 1.52,7.9200002 h 0.4 q 1.04,-2.4000002 2.24,-4.4000002 1.2,-2 3.2,-3.12 2,-1.2 5.52,-1.2 4.4,0 6.48,1.52 2.16,1.52 2.16,4.32 0,2.48 -1.76,4.0800002 -1.68,1.6 -5.68,1.6 0,-2.24 -0.4,-3.6000002 -0.4,-1.36 -1.36,-2 -0.88,-0.64 -2.48,-0.64 -2.24,0 -3.76,1.76 -1.52,1.7600002 -2.4,4.4800002 -0.88,2.72 -1.28,5.68 -0.4,2.88 -0.4,5.2 V 16.409999 q 0,2.32 0.88,3.52 0.96,1.12 2.4,1.52 1.52,0.32 3.28,0.32 h 2.24 v 3.36 z"
     id="path91" /><path
     d="m -385.76047,25.129999 v -3.36 h 0.64 q 1.84,0 3.28,-0.4 1.52,-0.4 2.4,-1.6 0.88,-1.28 0.88,-3.76 v -42.88 q 0,-2.4 -0.96,-3.52 -0.88,-1.2 -2.4,-1.52 -1.44,-0.4 -3.2,-0.4 h -0.64 v -3.36 h 14.72 v 17.6 q 0,1.44 -0.08,3.04 -0.08,1.52 -0.16,2.64 -0.08,1.12 -0.08,1.12 h 0.4 q 1.2,-2.4 2.88,-4 1.76,-1.68 3.92,-2.48 2.24,-0.8 4.96,-0.8 6.88,0 10.48,3.76 3.68,3.68 3.68,11.9200002 V 16.009999 q 0,2.48 0.8,3.76 0.8,1.2 2.16,1.6 1.44,0.4 3.2,0.4 h 0.24 v 3.36 h -13.92 V -2.4700008 q 0,-5.2 -2,-8.0800002 -1.92,-2.88 -6.8,-2.88 -3.28,0 -5.44,1.6 -2.16,1.6 -3.2,4.5600002 -1.04,2.88 -1.04,6.79999996 V 16.409999 q 0,2.32 0.88,3.52 0.96,1.12 2.4,1.52 1.52,0.32 3.28,0.32 h 0.24 v 3.36 z"
     id="path93" /><path
     d="m -313.4406,25.929999 q -8.64,0 -13.6,-5.52 -4.96,-5.52 -4.96,-16.7999998 0,-11.2 4.72,-16.6400002 4.8,-5.52 14.08,-5.52 8.64,0 13.6,5.52 4.96,5.4400002 4.96,16.6400002 0,11.2799998 -4.8,16.7999998 -4.72,5.52 -14,5.52 z m 0.16,-4.16 q 4,0 6.4,-2 2.4,-2.08 3.44,-6.16 1.04,-4.0799998 1.04,-9.9999998 0,-8.96 -2.48,-13.44 -2.48,-4.4800002 -8.48,-4.4800002 -6,0 -8.48,4.4800002 -2.4,4.48 -2.4,13.44 0,8.9599998 2.48,13.5999998 2.48,4.56 8.48,4.56 z"
     id="path95" /><path
     d="m -268.40063,25.929999 q -6.32,0 -9.76,-3.68 -3.44,-3.76 -3.44,-12 V -8.9500008 q 0,-2.4000002 -0.96,-3.5200002 -0.88,-1.2 -2.4,-1.52 -1.44,-0.4 -3.2,-0.4 h -0.24 v -3.36 h 14.32 V 9.8499992 q 0,3.4399998 0.72,5.9199998 0.8,2.48 2.64,3.76 1.84,1.28 5.04,1.28 3.52,0 5.76,-1.6 2.24,-1.68 3.28,-4.56 1.04,-2.96 1.04,-6.7999998 v -16.48 q 0,-2.5600002 -0.88,-3.7600002 -0.88,-1.2 -2.4,-1.6 -1.44,-0.4 -3.28,-0.4 h -0.24 v -3.36 h 14.32 v 34.16 q 0,2.32 0.88,3.52 0.96,1.12 2.4,1.52 1.52,0.32 3.28,0.32 h 0.24 v 3.36 h -12.72 l -1.04,-6.48 h -0.4 q -2.48,4.48 -5.76,5.92 -3.28,1.36 -7.2,1.36 z"
     id="path97" /><path
     d="m -218.72077,25.929999 q -5.28,0 -8.96,-2.32 -3.6,-2.32 -5.52,-7.2 -1.84,-4.96 -1.84,-12.6399998 0,-7.76 1.84,-12.64 1.92,-4.9600002 5.52,-7.2800002 3.68,-2.4 8.96,-2.4 4.64,0 7.52,2 2.96,1.92 4.72,5.04 h 0.48 q -0.24,-2 -0.4,-4.4 -0.08,-2.48 -0.08,-4.4 v -6.56 q 0,-2.4 -0.96,-3.52 -0.88,-1.2 -2.4,-1.52 -1.44,-0.4 -3.2,-0.4 h -0.64 v -3.36 h 14.72 v 52 q 0,2.32 0.88,3.52 0.96,1.2 2.4,1.6 1.52,0.32 3.28,0.32 h 0.64 v 3.36 h -13.52 l -0.88,-7.2 h -0.32 q -1.76,3.68 -4.64,5.84 -2.88,2.16 -7.6,2.16 z m 1.36,-5.12 q 6.24,0 8.56,-4.16 2.32,-4.24 2.32,-12.8799998 0,-8.32 -2.32,-12.72 -2.32,-4.4800002 -8.64,-4.4800002 -3.52,0 -5.68,2 -2.16,2.0000002 -3.2,5.8400002 -0.96,3.84 -0.96,9.44 0,8.4799998 2.24,12.7199998 2.32,4.24 7.68,4.24 z"
     id="path99" /><path
     d="M -188.40089,6.1699992 V 0.48999916 h 20.88 V 6.1699992 Z"
     id="path101" /><path
     d="m -162.48094,25.129999 v -3.36 h 1.04 q 1.84,0 3.28,-0.4 1.52,-0.4 2.4,-1.6 0.88,-1.28 0.88,-3.76 v -39.2 q 0,-2.4 -0.96,-3.52 -0.88,-1.2 -2.4,-1.52 -1.44,-0.4 -3.2,-0.4 h -1.04 v -3.36 h 23.28 v 3.36 h -1.04 q -1.76,0 -3.28,0.4 -1.52,0.4 -2.4,1.6 -0.88,1.2 -0.88,3.76 v 16.1600002 h 26 V -22.870001 q 0,-2.56 -0.88,-3.76 -0.88,-1.2 -2.4,-1.6 -1.44,-0.4 -3.28,-0.4 h -1.04 v -3.36 h 23.28 v 3.36 h -1.04 q -1.76,0 -3.28,0.4 -1.52,0.4 -2.4,1.6 -0.88,1.2 -0.88,3.76 v 39.28 q 0,2.32 0.88,3.52 0.96,1.12 2.4,1.52 1.52,0.32 3.28,0.32 h 1.04 v 3.36 h -23.28 v -3.36 h 1.04 q 1.84,0 3.28,-0.4 1.52,-0.4 2.4,-1.6 0.88,-1.28 0.88,-3.76 V -2.7100008 h -26 V 16.009999 q 0,2.48 0.88,3.76 0.88,1.2 2.4,1.6 1.52,0.4 3.28,0.4 h 1.04 v 3.36 z"
     id="path103" /><path
     d="m -79.120994,25.929999 q -8.72,0 -13.68,-5.76 -4.88,-5.76 -4.88,-16.1599998 0,-11.2 4.64,-16.8800002 4.64,-5.68 13.12,-5.68 7.76,0 12.16,4.8 4.48,4.8000002 4.48,14.32000016 V 4.2499992 h -26.64 q 0.16,8.7199998 3.12,12.7199998 3.04,3.92 8.8,3.92 4.16,0 7.04,-1.68 2.96,-1.76 4.4,-3.92 0.56,0.24 1.04,0.96 0.48,0.72 0.48,1.76 0,1.6 -1.52,3.44 -1.52,1.84 -4.64,3.2 -3.12,1.28 -7.92,1.28 z m 7.76,-25.99999984 q 0,-6.39999996 -2,-10.24000016 -1.92,-3.92 -6.72,-3.92 -4.4,0 -6.88,3.68 -2.4,3.6000002 -2.8,10.48000016 z"
     id="path105" /><path
     d="m -56.641006,25.129999 v -3.36 h 0.24 q 1.84,0 3.28,-0.4 1.52,-0.4 2.4,-1.6 0.88,-1.28 0.88,-3.76 V -8.9500008 q 0,-2.4000002 -0.96,-3.5200002 -0.88,-1.2 -2.4,-1.52 -1.44,-0.4 -3.2,-0.4 h -0.24 v -3.36 h 12.32 l 1.52,7.9200002 h 0.4 q 1.04,-2.4000002 2.24,-4.4000002 1.2,-2 3.2,-3.12 2,-1.2 5.52,-1.2 4.4,0 6.48,1.52 2.16,1.52 2.16,4.32 0,2.48 -1.76,4.0800002 -1.68,1.6 -5.68,1.6 0,-2.24 -0.4,-3.6000002 -0.4,-1.36 -1.36,-2 -0.88,-0.64 -2.48,-0.64 -2.24,0 -3.76,1.76 -1.52,1.7600002 -2.4,4.4800002 -0.88,2.72 -1.28,5.68 -0.4,2.88 -0.4,5.2 V 16.409999 q 0,2.32 0.88,3.52 0.96,1.12 2.4,1.52 1.52,0.32 3.28,0.32 h 2.24 v 3.36 z"
     id="path107" /><path
     d="m -4.8010742,25.929999 q -4,0 -6.9599998,-0.96 -2.96,-0.96 -4.64,-2.8 -1.6,-1.92 -1.6,-4.72 0,-2.16 0.88,-3.36 0.88,-1.2 2,-1.68 1.2,-0.48 2.16,-0.48 0,4.16 1.84,7.2 1.9199998,2.96 6.7999998,2.96 4.23999998,0 6.48,-2 2.32,-2.08 2.32,-5.28 0,-2 -0.88,-3.28 -0.8,-1.28 -2.96000002,-2.4799998 -2.07999998,-1.28 -5.99999998,-2.96 -4.08,-1.84 -6.7999998,-3.52 -2.64,-1.76000004 -4,-4 -1.28,-2.32 -1.28,-5.76 0,-5.4400002 4.08,-8.3200002 4.1599998,-2.96 10.9599998,-2.96 3.84,0 6.4,1.04 2.64,0.96 3.92,2.64 1.36,1.68 1.36,3.68 0,2.1600002 -1.52,3.5200002 -1.44,1.28 -4.24,1.28 0,-4.0000002 -1.68,-6.2400002 -1.68000002,-2.24 -5.2,-2.24 -4.08,0 -5.84,1.84 -1.7599998,1.76 -1.7599998,4.5600002 0,2 0.96,3.36 1.0399998,1.36 3.1999998,2.56 2.24,1.12 5.76,2.55999996 4.24,1.76000004 6.88,3.52000004 2.64,1.76 3.84,4.08 1.2800002,2.3199998 1.2800002,5.6799998 0,6.24 -4.3200002,9.44 -4.32,3.12 -11.44,3.12 z"
     id="path109" /><path
     d="m 33.67876,25.929999 q -6.08,0 -8.88,-2.72 -2.72,-2.8 -2.72,-9.68 v -26.72 h -6.08 v -3.2 q 1.44,0 3.2,-0.56 1.76,-0.64 3.04,-2 1.36,-1.44 2.24,-3.52 0.88,-2.08 1.44,-5.12 h 3.68 v 9.84 h 10.48 v 4.56 h -10.48 v 26.96 q 0,4.08 1.68,6 1.68,1.92 4.4,1.92 1.44,0 2.64,-0.16 1.2,-0.16 2.48,-0.4 v 3.52 q -1.04,0.48 -3.12,0.88 -2.08,0.4 -4,0.4 z"
     id="path111" /><path
     d="m 65.598672,25.929999 q -8.72,0 -13.68,-5.76 -4.88,-5.76 -4.88,-16.1599998 0,-11.2 4.64,-16.8800002 4.64,-5.68 13.12,-5.68 7.76,0 12.16,4.8 4.48,4.8000002 4.48,14.32000016 V 4.2499992 h -26.64 q 0.16,8.7199998 3.12,12.7199998 3.04,3.92 8.8,3.92 4.16,0 7.04,-1.68 2.96,-1.76 4.4,-3.92 0.56,0.24 1.04,0.96 0.48,0.72 0.48,1.76 0,1.6 -1.52,3.44 -1.52,1.84 -4.64,3.2 -3.12,1.28 -7.92,1.28 z m 7.76,-25.99999984 q 0,-6.39999996 -2,-10.24000016 -1.92,-3.92 -6.72,-3.92 -4.4,0 -6.88,3.68 -2.4,3.6000002 -2.8,10.48000016 z"
     id="path113" /><path
     d="m 86.478721,25.129999 v -3.36 h 1.04 q 1.84,0 3.28,-0.4 1.52,-0.4 2.4,-1.6 0.88,-1.28 0.88,-3.76 v -42.88 q 0,-2.4 -0.96,-3.52 -0.88,-1.2 -2.4,-1.52 -1.44,-0.4 -3.2,-0.4 h -1.04 v -3.36 h 15.119999 v 51.68 q 0,2.48 0.88,3.76 0.88,1.2 2.4,1.6 1.52,0.4 3.28,0.4 h 1.04 v 3.36 z"
     id="path115" /><path
     d="m 111.27865,25.129999 v -3.36 h 1.04 q 1.84,0 3.28,-0.4 1.52,-0.4 2.4,-1.6 0.88,-1.28 0.88,-3.76 v -42.88 q 0,-2.4 -0.96,-3.52 -0.88,-1.2 -2.4,-1.52 -1.44,-0.4 -3.2,-0.4 h -1.04 v -3.36 h 15.12 v 51.68 q 0,2.48 0.88,3.76 0.88,1.2 2.4,1.6 1.52,0.4 3.28,0.4 h 1.04 v 3.36 z"
     id="path117" /><path
     d="m 136.87857,25.129999 v -3.36 h 1.04 q 1.76,0 3.2,-0.32 1.52,-0.4 2.4,-1.52 0.96,-1.2 0.96,-3.52 V -8.9500008 q 0,-2.4000002 -0.96,-3.5200002 -0.88,-1.2 -2.4,-1.52 -1.44,-0.4 -3.2,-0.4 h -0.24 v -3.36 h 14.32 v 33.76 q 0,2.48 0.88,3.76 0.88,1.2 2.4,1.6 1.52,0.4 3.28,0.4 h 1.04 v 3.36 z m 11.04,-50.88 q -1.92,0 -3.28,-1.12 -1.28,-1.12 -1.28,-3.84 0,-2.8 1.28,-3.84 1.36,-1.12 3.28,-1.12 1.84,0 3.2,1.12 1.36,1.04 1.36,3.84 0,2.72 -1.36,3.84 -1.36,1.12 -3.2,1.12 z"
     id="path119" /><path
     d="m 162.87855,25.129999 v -3.36 h 0.64 q 1.84,0 3.28,-0.4 1.52,-0.4 2.4,-1.6 0.88,-1.28 0.88,-3.76 V -8.9500008 q 0,-2.4000002 -0.88,-3.5200002 -0.88,-1.2 -2.32,-1.52 -1.44,-0.4 -3.2,-0.4 h -0.4 v -3.36 h 12.96 l 1.04,6.48 h 0.4 q 1.68,-3.04 3.52,-4.56 1.92,-1.6 4.16,-2.16 2.24,-0.56 4.8,-0.56 6.32,0 9.84,3.76 3.6,3.68 3.6,11.9200002 V 16.009999 q 0,2.48 0.72,3.76 0.8,1.2 2.16,1.6 1.36,0.4 3.12,0.4 h 0.4 v 3.36 h -13.92 V -2.4700008 q 0,-5.2 -2,-8.0800002 -1.92,-2.88 -6.8,-2.88 -3.6,0 -5.76,1.84 -2.08,1.7600002 -3.04,4.7200002 -0.88,2.96 -0.88,6.39999996 V 16.409999 q 0,2.32 0.88,3.52 0.88,1.12 2.32,1.52 1.44,0.32 3.2,0.32 h 0.4 v 3.36 z"
     id="path121" /><path
     d="m 230.71846,44.329999 q -8.32,0 -12.48,-3.12 -4.16,-3.04 -4.16,-8.56 0,-3.12 1.36,-5.28 1.44,-2.08 3.68,-3.28 2.32,-1.2 4.96,-1.68 -1.6,-0.72 -3.04,-2.32 -1.36,-1.68 -1.36,-4.24 0,-2.4 1.2,-4.16 1.28,-1.7599998 4,-3.3599998 -3.44,-1.44 -5.36,-4.72 -1.84,-3.36000004 -1.84,-7.36 0,-6.8800002 3.76,-10.8000002 3.76,-4 11.28,-4 2.88,0 5.44,0.8 2.56,0.8 3.68,1.84 0.8,-0.88 1.92,-1.84 1.12,-1.04 2.56,-1.76 1.52,-0.72 3.28,-0.72 2.4,0 3.52,1.28 1.2,1.2 1.2,2.88 0,1.68 -1.04,2.96 -0.96,1.2 -3.2,1.2 0,-0.88 -0.56,-1.76 -0.48,-0.96 -2.08,-0.96 -1.04,0 -1.84,0.24 -0.8,0.24 -1.6,0.72 1.36,1.68 2.24,4.0000002 0.88,2.24 0.88,5.68 0,5.92 -3.6,9.84 -3.52,3.92 -10.8,3.92 -0.96,0 -2.24,-0.08 -1.2,-0.16 -2,-0.32 -1.52,0.7999998 -2.64,1.9999998 -1.12,1.2 -1.12,3.04 0,1.44 0.88,2.24 0.96,0.8 4.08,0.8 h 9.04 q 4.8,0 7.68,1.6 2.88,1.52 4.16,4.24 1.36,2.64 1.36,6.08 0,6.88 -5.2,10.88 -5.12,4.08 -16,4.08 z m 0.16,-3.92 q 5.76,0 8.88,-1.28 3.12,-1.2 4.32,-3.44 1.28,-2.16 1.28,-4.96 0,-3.68 -2.08,-4.96 -2.08,-1.2 -6.08,-1.2 h -7.84 q -2.24,0 -4.24,0.56 -2,0.64 -3.28,2.24 -1.28,1.6 -1.28,4.8 0,2.32 0.88,4.16 0.88,1.92 3.12,2.96 2.24,1.12 6.32,1.12 z m 1.6,-34.4799998 q 2.64,0 4.16,-1.04 1.6,-1.04 2.24,-3.28 0.72,-2.24000004 0.72,-5.68 0,-3.6 -0.72,-5.92 -0.72,-2.4000002 -2.32,-3.5200002 -1.52,-1.12 -4.16,-1.12 -2.56,0 -4.16,1.2 -1.6,1.12 -2.32,3.5200002 -0.72,2.32 -0.72,5.92 0,5.12 1.68,7.52 1.76,2.4 5.6,2.4 z"
     id="path123" /><path
     d="M 257.19832,6.1699992 V 0.48999916 h 20.88 V 6.1699992 Z"
     id="path125" /><path
     d="m 283.11825,25.129999 v -3.36 h 1.04 q 1.84,0 3.28,-0.4 1.52,-0.4 2.4,-1.6 0.88,-1.28 0.88,-3.76 v -39.2 q 0,-2.4 -0.96,-3.52 -0.88,-1.2 -2.4,-1.52 -1.44,-0.4 -3.2,-0.4 h -1.04 v -3.36 h 22.48 q 10.08,0 14.88,4.48 4.8,4.4 4.8,12.24 0,3.6 -1.12,6.8800002 -1.12,3.2 -3.68,5.76 -2.48,2.55999996 -6.64,4.08 -4.08,1.44 -10,1.44 h -5.04 V 16.409999 q 0,2.32 0.88,3.52 0.96,1.12 2.4,1.52 1.52,0.32 3.28,0.32 h 2.64 v 3.36 z m 19.92,-25.99999984 q 3.6,0 6.16,-0.71999996 2.64,-0.8 4.24,-2.48 1.68,-1.68 2.4,-4.32 0.8,-2.7200002 0.8,-6.5600002 0,-6.72 -2.8,-9.92 -2.8,-3.28 -9.6,-3.28 h -5.44 v 27.28000016 z"
     id="path127" /><path
     d="m 329.43813,25.129999 v -3.36 h 1.04 q 1.84,0 3.28,-0.4 1.52,-0.4 2.4,-1.6 0.88,-1.28 0.88,-3.76 v -42.88 q 0,-2.4 -0.96,-3.52 -0.88,-1.2 -2.4,-1.52 -1.44,-0.4 -3.2,-0.4 h -1.04 v -3.36 h 15.12 v 51.68 q 0,2.48 0.88,3.76 0.88,1.2 2.4,1.6 1.52,0.4 3.28,0.4 h 1.04 v 3.36 z"
     id="path129" /><path
     d="m 369.59812,25.929999 q -3.52,0 -6.4,-1.36 -2.8,-1.44 -4.4,-4.24 -1.6,-2.88 -1.6,-7.2 0,-6.3999998 4.48,-9.4399998 4.56,-3.04000004 13.76,-3.36000004 l 6.64,-0.24 V -4.7100008 q 0,-2.88 -0.48,-5.04 -0.48,-2.2400002 -2.08,-3.5200002 -1.6,-1.28 -4.88,-1.28 -3.04,0 -4.64,1.12 -1.6,1.12 -2.16,3.12 -0.48,1.9200002 -0.48,4.4800002 -3.36,0 -5.12,-1.12 -1.68,-1.2 -1.68,-3.9200002 0,-2.8 1.92,-4.48 2,-1.68 5.28,-2.4 3.28,-0.8 7.2,-0.8 7.36,0 10.96,3.12 3.68,3.12 3.68,10.7200002 V 16.009999 q 0,2.24 0.48,3.52 0.48,1.2 1.6,1.76 1.12,0.48 2.88,0.48 h 0.24 v 3.36 h -10.8 l -1.28,-6.88 h -0.64 q -1.68,2.24 -3.28,4 -1.6,1.68 -3.76,2.72 -2.08,0.96 -5.44,0.96 z m 1.84,-4.96 q 3.28,0 5.6,-1.36 2.4,-1.36 3.68,-3.84 1.36,-2.56 1.36,-5.9199998 v -6.48 l -5.12,0.24 q -4.56,0.16 -7.2,1.36 -2.56,1.2 -3.68,3.36 -1.12,2.0799998 -1.12,5.1999998 0,2.48 0.72,4.16 0.72,1.6 2.16,2.48 1.44,0.8 3.6,0.8 z"
     id="path131" /><path
     d="m 414.63804,25.929999 q -3.52,0 -6.4,-1.36 -2.8,-1.44 -4.4,-4.24 -1.6,-2.88 -1.6,-7.2 0,-6.3999998 4.48,-9.4399998 4.56,-3.04000004 13.76,-3.36000004 l 6.64,-0.24 V -4.7100008 q 0,-2.88 -0.48,-5.04 -0.48,-2.2400002 -2.08,-3.5200002 -1.6,-1.28 -4.88,-1.28 -3.04,0 -4.64,1.12 -1.6,1.12 -2.16,3.12 -0.48,1.9200002 -0.48,4.4800002 -3.36,0 -5.12,-1.12 -1.68,-1.2 -1.68,-3.9200002 0,-2.8 1.92,-4.48 2,-1.68 5.28,-2.4 3.28,-0.8 7.2,-0.8 7.36,0 10.96,3.12 3.68,3.12 3.68,10.7200002 V 16.009999 q 0,2.24 0.48,3.52 0.48,1.2 1.6,1.76 1.12,0.48 2.88,0.48 h 0.24 v 3.36 h -10.8 l -1.28,-6.88 h -0.64 q -1.68,2.24 -3.28,4 -1.6,1.68 -3.76,2.72 -2.08,0.96 -5.44,0.96 z m 1.84,-4.96 q 3.28,0 5.6,-1.36 2.4,-1.36 3.68,-3.84 1.36,-2.56 1.36,-5.9199998 v -6.48 l -5.12,0.24 q -4.56,0.16 -7.2,1.36 -2.56,1.2 -3.68,3.36 -1.12,2.0799998 -1.12,5.1999998 0,2.48 0.72,4.16 0.72,1.6 2.16,2.48 1.44,0.8 3.6,0.8 z"
     id="path133" /><path
     d="m 462.47808,25.929999 q -6.08,0 -8.88,-2.72 -2.72,-2.8 -2.72,-9.68 v -26.72 h -6.08 v -3.2 q 1.44,0 3.2,-0.56 1.76,-0.64 3.04,-2 1.36,-1.44 2.24,-3.52 0.88,-2.08 1.44,-5.12 h 3.68 v 9.84 h 10.48 v 4.56 h -10.48 v 26.96 q 0,4.08 1.68,6 1.68,1.92 4.4,1.92 1.44,0 2.64,-0.16 1.2,-0.16 2.48,-0.4 v 3.52 q -1.04,0.48 -3.12,0.88 -2.08,0.4 -4,0.4 z"
     id="path135" /><path
     d="m 488.23799,25.929999 q -4,0 -6.96,-0.96 -2.96,-0.96 -4.64,-2.8 -1.6,-1.92 -1.6,-4.72 0,-2.16 0.88,-3.36 0.88,-1.2 2,-1.68 1.2,-0.48 2.16,-0.48 0,4.16 1.84,7.2 1.92,2.96 6.8,2.96 4.24,0 6.48,-2 2.32,-2.08 2.32,-5.28 0,-2 -0.88,-3.28 -0.8,-1.28 -2.96,-2.4799998 -2.08,-1.28 -6,-2.96 -4.08,-1.84 -6.8,-3.52 -2.64,-1.76000004 -4,-4 -1.28,-2.32 -1.28,-5.76 0,-5.4400002 4.08,-8.3200002 4.16,-2.96 10.96,-2.96 3.84,0 6.4,1.04 2.64,0.96 3.92,2.64 1.36,1.68 1.36,3.68 0,2.1600002 -1.52,3.5200002 -1.44,1.28 -4.24,1.28 0,-4.0000002 -1.68,-6.2400002 -1.68,-2.24 -5.2,-2.24 -4.08,0 -5.84,1.84 -1.76,1.76 -1.76,4.5600002 0,2 0.96,3.36 1.04,1.36 3.2,2.56 2.24,1.12 5.76,2.55999996 4.24,1.76000004 6.88,3.52000004 2.64,1.76 3.84,4.08 1.28,2.3199998 1.28,5.6799998 0,6.24 -4.32,9.44 -4.32,3.12 -11.44,3.12 z"
     id="path137" /><path
     d="m 509.35782,25.129999 v -3.36 h 1.04 q 1.76,0 3.2,-0.32 1.52,-0.4 2.4,-1.52 0.96,-1.2 0.96,-3.52 V -8.9500008 q 0,-2.4000002 -0.96,-3.5200002 -0.88,-1.2 -2.4,-1.52 -1.44,-0.4 -3.2,-0.4 h -0.24 v -3.36 h 14.32 v 33.76 q 0,2.48 0.88,3.76 0.88,1.2 2.4,1.6 1.52,0.4 3.28,0.4 h 1.04 v 3.36 z m 11.04,-50.88 q -1.92,0 -3.28,-1.12 -1.28,-1.12 -1.28,-3.84 0,-2.8 1.28,-3.84 1.36,-1.12 3.28,-1.12 1.84,0 3.2,1.12 1.36,1.04 1.36,3.84 0,2.72 -1.36,3.84 -1.36,1.12 -3.2,1.12 z"
     id="path139" /><path
     d="m 535.3578,25.129999 v -3.36 h 0.64 q 1.84,0 3.28,-0.4 1.52,-0.4 2.4,-1.6 0.88,-1.28 0.88,-3.76 V -8.9500008 q 0,-2.4000002 -0.88,-3.5200002 -0.88,-1.2 -2.32,-1.52 -1.44,-0.4 -3.2,-0.4 h -0.4 v -3.36 h 12.96 l 1.04,6.48 h 0.4 q 1.68,-3.04 3.52,-4.56 1.92,-1.6 4.16,-2.16 2.24,-0.56 4.8,-0.56 6.32,0 9.84,3.76 3.6,3.68 3.6,11.9200002 V 16.009999 q 0,2.48 0.72,3.76 0.8,1.2 2.16,1.6 1.36,0.4 3.12,0.4 h 0.4 v 3.36 h -13.92 V -2.4700008 q 0,-5.2 -2,-8.0800002 -1.92,-2.88 -6.8,-2.88 -3.6,0 -5.76,1.84 -2.08,1.7600002 -3.04,4.7200002 -0.88,2.96 -0.88,6.39999996 V 16.409999 q 0,2.32 0.88,3.52 0.88,1.12 2.32,1.52 1.44,0.32 3.2,0.32 h 0.4 v 3.36 z"
     id="path141" /><path
     d="m 603.19777,44.329999 q -8.32,0 -12.48,-3.12 -4.16,-3.04 -4.16,-8.56 0,-3.12 1.36,-5.28 1.44,-2.08 3.68,-3.28 2.32,-1.2 4.96,-1.68 -1.6,-0.72 -3.04,-2.32 -1.36,-1.68 -1.36,-4.24 0,-2.4 1.2,-4.16 1.28,-1.7599998 4,-3.3599998 -3.44,-1.44 -5.36,-4.72 -1.84,-3.36000004 -1.84,-7.36 0,-6.8800002 3.76,-10.8000002 3.76,-4 11.28,-4 2.88,0 5.44,0.8 2.56,0.8 3.68,1.84 0.8,-0.88 1.92,-1.84 1.12,-1.04 2.56,-1.76 1.52,-0.72 3.28,-0.72 2.4,0 3.52,1.28 1.2,1.2 1.2,2.88 0,1.68 -1.04,2.96 -0.96,1.2 -3.2,1.2 0,-0.88 -0.56,-1.76 -0.48,-0.96 -2.08,-0.96 -1.04,0 -1.84,0.24 -0.8,0.24 -1.6,0.72 1.36,1.68 2.24,4.0000002 0.88,2.24 0.88,5.68 0,5.92 -3.6,9.84 -3.52,3.92 -10.8,3.92 -0.96,0 -2.24,-0.08 -1.2,-0.16 -2,-0.32 -1.52,0.7999998 -2.64,1.9999998 -1.12,1.2 -1.12,3.04 0,1.44 0.88,2.24 0.96,0.8 4.08,0.8 h 9.04 q 4.8,0 7.68,1.6 2.88,1.52 4.16,4.24 1.36,2.64 1.36,6.08 0,6.88 -5.2,10.88 -5.12,4.08 -16,4.08 z m 0.16,-3.92 q 5.76,0 8.88,-1.28 3.12,-1.2 4.32,-3.44 1.28,-2.16 1.28,-4.96 0,-3.68 -2.08,-4.96 -2.08,-1.2 -6.08,-1.2 h -7.84 q -2.24,0 -4.24,0.56 -2,0.64 -3.28,2.24 -1.28,1.6 -1.28,4.8 0,2.32 0.88,4.16 0.88,1.92 3.12,2.96 2.24,1.12 6.32,1.12 z m 1.6,-34.4799998 q 2.64,0 4.16,-1.04 1.6,-1.04 2.24,-3.28 0.72,-2.24000004 0.72,-5.68 0,-3.6 -0.72,-5.92 -0.72,-2.4000002 -2.32,-3.5200002 -1.52,-1.12 -4.16,-1.12 -2.56,0 -4.16,1.2 -1.6,1.12 -2.32,3.5200002 -0.72,2.32 -0.72,5.92 0,5.12 1.68,7.52 1.76,2.4 5.6,2.4 z"
     id="path143" /></g>
</g><g
   transform="matrix(0.31,0,0,0.31,439.06,199.69)"
   id="separator_line">
<path
   id="rect18"
   style="opacity:1;fill:#333333;fill-rule:nonzero;stroke:none;stroke-width:1;stroke-linecap:butt;stroke-linejoin:miter;stroke-miterlimit:4;stroke-dasharray:none;stroke-dashoffset:0"
   d="m -2.5,-120.2 h 5 v 240.4 h -5 z" />
</g><g
   transform="matrix(0.24,0,0,0.24,371.35,201)"
   id="main_icon">
<path
   style="opacity:1;fill:#333333;fill-rule:nonzero;stroke:none;stroke-width:1;stroke-linecap:butt;stroke-linejoin:miter;stroke-miterlimit:4;stroke-dasharray:none;stroke-dashoffset:0"
   transform="translate(-237.82,-237.89)"
   d="m 231.7,0 c 14.2,-0.2 28.5,0.5 42.5,2.6 46.3,7 89.4,28.7 123.9,60.1 37.2,33.9 63.2,79.9 72.9,129.3 2.6,13.4 3.9,27 4.5,40.6 0.3,7.7 -0.1,15.6 -0.7,23.3 -2.5,33.4 -12.5,65.5 -28,95.1 -1.9,3.5 -4.1,6.9 -6.2,10.3 -8.2,13 -17.2,25.7 -27.6,37 -34.9,37.9 -82.9,64.9 -133.7,74 -11.7,2.1 -23.9,3 -35.8,3.5 -31.7,0.2 -63.4,-4.7 -92.9,-16.6 -13.7,-5.5 -26.7,-12.5 -39,-20.5 C 98,430 85.3,420.3 73.6,409.2 63.7,399.8 54.8,389.2 46.7,378.1 42,371.7 37.4,365.2 33.4,358.4 12.7,323.6 1.1,283.4 0.1,242.9 -0.2,229.2 0.6,215.1 2.6,201.5 4.3,190.6 7.1,179.6 10.4,169 21.4,134.1 39.8,101.8 65.1,75.2 82.9,56.6 103.4,41 126,28.6 c 4.5,-2.5 9,-5 13.7,-7.1 C 151.3,16.2 163.3,12 175.5,8.6 184.6,6.1 193.7,3.9 203,2.4 212.5,0.9 222.1,0.3 231.7,0 Z m 19.2,127.2 c 0.2,11.8 1,23.5 1.5,35.3 0.1,2.9 0.3,5.8 0.4,8.7 0.1,1.6 0.2,3.4 0,5 -0.3,2.3 -2.5,5 -3.6,7 -1.2,2.2 -2.3,4.5 -3.3,6.7 -1.8,3.9 -3.3,8 -5,11.9 -4.3,9.9 -8.6,19.7 -12.9,29.6 -2.1,4.8 -4.2,9.5 -6.4,14.2 -1.3,2.8 -2.4,6 -4.7,8.3 -2.7,2.7 -6.7,3.1 -10.3,3 -2.9,-0.1 -5.7,-0.6 -8.6,-0.8 -8.3,-0.6 -16.6,-1.3 -24.9,-1.9 -9.3,-0.7 -18.5,-1.6 -27.8,-2.4 -6,-0.5 -12.3,-0.8 -18.1,-2.2 1.1,6.4 2.2,12.7 4,19 6.3,21.3 18.7,40.2 35.5,54.7 3.8,3.3 7.9,5.3 8.1,11 0.1,2 -0.1,3.4 -0.9,5.2 l -0.2,0.3 c -1.1,2.3 -3.3,4.1 -5.8,4.8 -2,0.6 -4.3,0.8 -6.3,0.1 l -0.4,-0.1 c -3.5,-1.3 -6.9,-4.5 -9.8,-7 -15.1,-13.1 -26.6,-29 -34.8,-47.2 -4.4,-9.7 -7.5,-20.2 -9.4,-30.7 -0.6,-3.6 -1.3,-7.3 -1.5,-11 l -30.8,-0.1 c 0.2,7.8 1.4,15.6 3.1,23.2 4.4,19.8 12.1,39.6 23.5,56.4 4.1,6.1 9,11.8 13.7,17.5 1.6,1.9 3.4,3.7 4.8,5.8 0.6,0.9 1,2.1 1.2,3.2 0.5,3.2 -0.3,6.3 -2.5,8.6 -2.1,2.1 -5.1,3.3 -8.1,3.3 -2.7,0 -4.8,-0.6 -6.8,-2.6 -3.2,-3.2 -6.1,-6.7 -9,-10.2 C 89.2,347 83.7,339.9 79.2,332.3 70,317.3 63.4,300.4 59,283.1 c -2.5,-9.6 -4.3,-19.3 -4.9,-29.2 -0.1,-1.1 -0.1,-2.3 -0.2,-3.4 0,-0.4 0,-1.8 -0.1,-1.8 -0.2,-0.1 -2.3,-0.1 -2.7,-0.1 l -28.5,0.1 -1.5,0.1 c -1.2,1.8 2.7,26.2 3.4,29.7 1.4,6.7 2.8,13.4 4.8,20 11.9,40.5 35.9,78 68.2,105.4 7.2,6.1 15.2,11.8 23.2,17 34.3,22.3 65.2,28.7 73.6,30.4 7.7,1.5 17.9,3.1 30.1,3.6 -0.4,-77.7 -0.8,-127.5 -1.2,-134.9 -0.3,-5.6 0.3,-11.2 0.2,-16.9 0,-0.5 0,-1.8 0.3,-3.5 0.5,-2.3 1.3,-3.9 2,-5.2 1.3,-2.4 2.2,-5.1 3.3,-7.6 3,-6.9 6.1,-13.9 9.1,-20.8 3.3,-7.5 6.6,-15 9.8,-22.5 2.7,-6.3 5.2,-12.8 8.3,-18.9 0.6,-1.1 1.2,-2 2.1,-2.9 2.1,-2.1 4.9,-3.6 7.9,-3.6 l 82.2,8.2 c -1.4,-10.2 -3.6,-19.9 -7.4,-29.5 -7,-18 -19.4,-34.6 -34.8,-46.2 -6.7,-5 -13.6,-9.6 -21.1,-13.3 -10.8,-5.4 -22.4,-8.6 -34.2,-10.1 z M 248.6,20.9 v 32.4 c 6.9,0.7 13.9,1.3 20.7,2.5 23.5,4.2 46.5,13 66.6,25.8 5.8,3.7 11.3,7.9 16.7,12.2 9.6,7.8 18.9,16.4 26.8,26 18.1,21.8 31.8,48.5 38,76.2 2.3,10.3 3.5,20.9 4.4,31.4 l 32.7,0.1 c -0.4,-11.5 -2.2,-23.3 -4.6,-34.6 -1.3,-5.8 -2.5,-11.6 -4.2,-17.3 -11,-36.8 -32.6,-71 -60.8,-97.1 C 378.9,72.9 372.6,67.9 366,63.1 357.9,57.1 349.4,51.4 340.5,46.6 312.6,31 280.6,22 248.6,20.9 Z m 173.6,227.8 c -1.4,17.9 -4.9,36.3 -11.2,53.2 -6.5,17.7 -15.9,34.4 -27.4,49.3 -6.7,8.7 -13.9,17 -22.3,24.1 -27.1,23.2 -59.9,40.7 -95.5,45.7 -5.7,0.8 -11.5,1.5 -17.2,1.5 l 0.3,32.7 28.3,-3.4 c 7.4,-1.4 14.8,-2.9 22.1,-5.1 47.3,-14.1 89.6,-44.8 117.5,-85.6 12.9,-18.8 22.5,-39.6 29.1,-61.5 1.4,-4.8 2.8,-9.5 3.9,-14.3 2.6,-12.1 4.1,-24.2 5,-36.5 z M 222.4,21 C 166,24.6 111.8,52.5 74.6,94.9 c -13.6,15.4 -24.3,32.4 -33,51 -12.1,25.8 -19.5,52.7 -20.7,81.3 l 4.9,0.1 h 27.7 c 1.8,-39.1 17.5,-77.7 42.6,-107.6 5.7,-6.8 12.1,-13.1 18.7,-19.1 4.6,-4.1 9.4,-7.9 14.4,-11.5 22.6,-16.6 48.5,-28.2 76.1,-33.2 7.3,-1.3 14.6,-2.3 22.1,-2.5 l -0.2,-32.5 z m 147.5,227.6 c -0.7,7.5 -2.3,15 -4.2,22.3 -2.4,9 -5.5,17.9 -9.7,26.2 -2.3,4.6 -5.2,9.1 -8,13.5 -6.1,9.6 -13.4,18.7 -22.2,26.1 -12.4,10.4 -26.4,19.9 -41.6,25.8 -11.4,4.4 -23.7,7.1 -35.9,7.9 l 0.2,31.7 c 68.4,-17 114.3,-54 130,-80.7 15.1,-25.6 20,-53.3 20,-53.3 1.2,-6.4 1.5,-12.9 2.2,-19.4 z M 248.4,74.4 c 0.1,3.7 0,30.4 0.6,31.5 5.6,0.5 11.2,1.2 16.8,2.4 20.2,4.5 38.7,14.1 54.8,27 7.2,5.8 13.9,12.1 19.8,19.2 16.9,20.5 27,46.4 29.5,72.7 l 31.1,0.1 c -0.6,-6.7 -1.2,-13.4 -2.4,-20 -6.7,-36.2 -26.3,-69.9 -54.4,-93.7 -20.6,-17.5 -46,-30.8 -72.6,-36.3 -7.8,-1.6 -15.5,-2.3 -23.2,-2.9 z m -25.8,0.7 c -32.5,2.2 -64.4,16.7 -89.3,37.5 -6.4,5.3 -12.7,11.1 -18.1,17.4 -19,21.8 -32.1,47.8 -37.7,76.3 -1.4,6.9 -2.1,14 -2.6,21 h 4.2 l 26.8,0.2 c 2.4,-33.3 19.1,-66.4 44.4,-88.2 18.2,-15.7 39,-26.8 62.7,-31.5 4.6,-0.9 9.4,-1.8 14.1,-2.1 V 75 Z m 6.3,51.9 c -27.7,1.7 -55,15.5 -73.4,36.3 -15.9,18 -25.9,40.1 -28.1,64.1 l 0.4,0.5 c 13.8,-3.7 27.5,-7.7 41.2,-11.9 6.1,-1.9 12.5,-3.4 18.4,-5.8 l 41.8,-82.8 z M 348,248 c -12,3 -23.7,6.9 -35.5,10.3 -7.4,2.1 -15.3,3.6 -22.5,6.2 -1.1,0.4 -1.5,0.5 -2.1,1.5 l -39.8,82.5 0.2,0.3 0.7,0.1 c 29.4,-2.5 55.4,-17.7 74.2,-40 11.9,-14.1 19.8,-31.8 23.6,-49.8 0.7,-3.5 1.7,-7.4 1.7,-11 -0.1,0 -0.3,-0.1 -0.5,-0.1 z"
   stroke-linecap="round"
   id="path21" />
</g></svg>
