<?xml version="1.0" encoding="UTF-8" standalone="no"?>
<svg
   xmlns:dc="http://purl.org/dc/elements/1.1/"
   xmlns:cc="http://creativecommons.org/ns#"
   xmlns:rdf="http://www.w3.org/1999/02/22-rdf-syntax-ns#"
   xmlns:svg="http://www.w3.org/2000/svg"
   xmlns="http://www.w3.org/2000/svg"
   xmlns:sodipodi="http://sodipodi.sourceforge.net/DTD/sodipodi-0.dtd"
   xmlns:inkscape="http://www.inkscape.org/namespaces/inkscape"
   version="1.1"
   width="200"
   height="200"
   viewBox="527.4217424245289 100.5 200 200"
   xml:space="preserve"
   id="svg11"
   sodipodi:docname="built.svg"><metadata
   id="metadata15"><rdf:RDF><cc:Work
       rdf:about=""><dc:format>image/svg+xml</dc:format><dc:type
         rdf:resource="http://purl.org/dc/dcmitype/StillImage" /></cc:Work></rdf:RDF></metadata><sodipodi:namedview
   pagecolor="#ffffff"
   bordercolor="#666666"
   borderopacity="1"
   objecttolerance="10"
   gridtolerance="10"
   guidetolerance="10"
   inkscape:pageopacity="0"
   inkscape:pageshadow="2"
   inkscape:window-width="640"
   inkscape:window-height="480"
   id="namedview13" />
<desc
   id="desc2">Created with Fabric.js 5.3.0</desc>
<defs
   id="defs4">
</defs><rect
   width="100%"
   height="100%"
   fill="#ffffff"
   id="rect6" />
<g
   transform="matrix(0.42,0,0,0.42,627.5,201)"
   id="main_icon">
<path
   style="opacity:1;fill:#333333;fill-rule:nonzero;stroke:none;stroke-width:1;stroke-linecap:butt;stroke-linejoin:miter;stroke-miterlimit:4;stroke-dasharray:none;stroke-dashoffset:0"
   transform="translate(-237.82,-237.89)"
   d="m 231.7,0 c 14.2,-0.2 28.5,0.5 42.5,2.6 46.3,7 89.4,28.7 123.9,60.1 37.2,33.9 63.2,79.9 72.9,129.3 2.6,13.4 3.9,27 4.5,40.6 0.3,7.7 -0.1,15.6 -0.7,23.3 -2.5,33.4 -12.5,65.5 -28,95.1 -1.9,3.5 -4.1,6.9 -6.2,10.3 -8.2,13 -17.2,25.7 -27.6,37 -34.9,37.9 -82.9,64.9 -133.7,74 -11.7,2.1 -23.9,3 -35.8,3.5 -31.7,0.2 -63.4,-4.7 -92.9,-16.6 -13.7,-5.5 -26.7,-12.5 -39,-20.5 C 98,430 85.3,420.3 73.6,409.2 63.7,399.8 54.8,389.2 46.7,378.1 42,371.7 37.4,365.2 33.4,358.4 12.7,323.6 1.1,283.4 0.1,242.9 -0.2,229.2 0.6,215.1 2.6,201.5 4.3,190.6 7.1,179.6 10.4,169 21.4,134.1 39.8,101.8 65.1,75.2 82.9,56.6 103.4,41 126,28.6 c 4.5,-2.5 9,-5 13.7,-7.1 C 151.3,16.2 163.3,12 175.5,8.6 184.6,6.1 193.7,3.9 203,2.4 212.5,0.9 222.1,0.3 231.7,0 Z m 19.2,127.2 c 0.2,11.8 1,23.5 1.5,35.3 0.1,2.9 0.3,5.8 0.4,8.7 0.1,1.6 0.2,3.4 0,5 -0.3,2.3 -2.5,5 -3.6,7 -1.2,2.2 -2.3,4.5 -3.3,6.7 -1.8,3.9 -3.3,8 -5,11.9 -4.3,9.9 -8.6,19.7 -12.9,29.6 -2.1,4.8 -4.2,9.5 -6.4,14.2 -1.3,2.8 -2.4,6 -4.7,8.3 -2.7,2.7 -6.7,3.1 -10.3,3 -2.9,-0.1 -5.7,-0.6 -8.6,-0.8 -8.3,-0.6 -16.6,-1.3 -24.9,-1.9 -9.3,-0.7 -18.5,-1.6 -27.8,-2.4 -6,-0.5 -12.3,-0.8 -18.1,-2.2 1.1,6.4 2.2,12.7 4,19 6.3,21.3 18.7,40.2 35.5,54.7 3.8,3.3 7.9,5.3 8.1,11 0.1,2 -0.1,3.4 -0.9,5.2 l -0.2,0.3 c -1.1,2.3 -3.3,4.1 -5.8,4.8 -2,0.6 -4.3,0.8 -6.3,0.1 l -0.4,-0.1 c -3.5,-1.3 -6.9,-4.5 -9.8,-7 -15.1,-13.1 -26.6,-29 -34.8,-47.2 -4.4,-9.7 -7.5,-20.2 -9.4,-30.7 -0.6,-3.6 -1.3,-7.3 -1.5,-11 l -30.8,-0.1 c 0.2,7.8 1.4,15.6 3.1,23.2 4.4,19.8 12.1,39.6 23.5,56.4 4.1,6.1 9,11.8 13.7,17.5 1.6,1.9 3.4,3.7 4.8,5.8 0.6,0.9 1,2.1 1.2,3.2 0.5,3.2 -0.3,6.3 -2.5,8.6 -2.1,2.1 -5.1,3.3 -8.1,3.3 -2.7,0 -4.8,-0.6 -6.8,-2.6 -3.2,-3.2 -6.1,-6.7 -9,-10.2 C 89.2,347 83.7,339.9 79.2,332.3 70,317.3 63.4,300.4 59,283.1 c -2.5,-9.6 -4.3,-19.3 -4.9,-29.2 -0.1,-1.1 -0.1,-2.3 -0.2,-3.4 0,-0.4 0,-1.8 -0.1,-1.8 -0.2,-0.1 -2.3,-0.1 -2.7,-0.1 l -28.5,0.1 -1.5,0.1 c -1.2,1.8 2.7,26.2 3.4,29.7 1.4,6.7 2.8,13.4 4.8,20 11.9,40.5 35.9,78 68.2,105.4 7.2,6.1 15.2,11.8 23.2,17 34.3,22.3 65.2,28.7 73.6,30.4 7.7,1.5 17.9,3.1 30.1,3.6 -0.4,-77.7 -0.8,-127.5 -1.2,-134.9 -0.3,-5.6 0.3,-11.2 0.2,-16.9 0,-0.5 0,-1.8 0.3,-3.5 0.5,-2.3 1.3,-3.9 2,-5.2 1.3,-2.4 2.2,-5.1 3.3,-7.6 3,-6.9 6.1,-13.9 9.1,-20.8 3.3,-7.5 6.6,-15 9.8,-22.5 2.7,-6.3 5.2,-12.8 8.3,-18.9 0.6,-1.1 1.2,-2 2.1,-2.9 2.1,-2.1 4.9,-3.6 7.9,-3.6 l 82.2,8.2 c -1.4,-10.2 -3.6,-19.9 -7.4,-29.5 -7,-18 -19.4,-34.6 -34.8,-46.2 -6.7,-5 -13.6,-9.6 -21.1,-13.3 -10.8,-5.4 -22.4,-8.6 -34.2,-10.1 z M 248.6,20.9 v 32.4 c 6.9,0.7 13.9,1.3 20.7,2.5 23.5,4.2 46.5,13 66.6,25.8 5.8,3.7 11.3,7.9 16.7,12.2 9.6,7.8 18.9,16.4 26.8,26 18.1,21.8 31.8,48.5 38,76.2 2.3,10.3 3.5,20.9 4.4,31.4 l 32.7,0.1 c -0.4,-11.5 -2.2,-23.3 -4.6,-34.6 -1.3,-5.8 -2.5,-11.6 -4.2,-17.3 -11,-36.8 -32.6,-71 -60.8,-97.1 C 378.9,72.9 372.6,67.9 366,63.1 357.9,57.1 349.4,51.4 340.5,46.6 312.6,31 280.6,22 248.6,20.9 Z m 173.6,227.8 c -1.4,17.9 -4.9,36.3 -11.2,53.2 -6.5,17.7 -15.9,34.4 -27.4,49.3 -6.7,8.7 -13.9,17 -22.3,24.1 -27.1,23.2 -59.9,40.7 -95.5,45.7 -5.7,0.8 -11.5,1.5 -17.2,1.5 l 0.3,32.7 28.3,-3.4 c 7.4,-1.4 14.8,-2.9 22.1,-5.1 47.3,-14.1 89.6,-44.8 117.5,-85.6 12.9,-18.8 22.5,-39.6 29.1,-61.5 1.4,-4.8 2.8,-9.5 3.9,-14.3 2.6,-12.1 4.1,-24.2 5,-36.5 z M 222.4,21 C 166,24.6 111.8,52.5 74.6,94.9 c -13.6,15.4 -24.3,32.4 -33,51 -12.1,25.8 -19.5,52.7 -20.7,81.3 l 4.9,0.1 h 27.7 c 1.8,-39.1 17.5,-77.7 42.6,-107.6 5.7,-6.8 12.1,-13.1 18.7,-19.1 4.6,-4.1 9.4,-7.9 14.4,-11.5 22.6,-16.6 48.5,-28.2 76.1,-33.2 7.3,-1.3 14.6,-2.3 22.1,-2.5 l -0.2,-32.5 z m 147.5,227.6 c -0.7,7.5 -2.3,15 -4.2,22.3 -2.4,9 -5.5,17.9 -9.7,26.2 -2.3,4.6 -5.2,9.1 -8,13.5 -6.1,9.6 -13.4,18.7 -22.2,26.1 -12.4,10.4 -26.4,19.9 -41.6,25.8 -11.4,4.4 -23.7,7.1 -35.9,7.9 l 0.2,31.7 c 68.4,-17 114.3,-54 130,-80.7 15.1,-25.6 20,-53.3 20,-53.3 1.2,-6.4 1.5,-12.9 2.2,-19.4 z M 248.4,74.4 c 0.1,3.7 0,30.4 0.6,31.5 5.6,0.5 11.2,1.2 16.8,2.4 20.2,4.5 38.7,14.1 54.8,27 7.2,5.8 13.9,12.1 19.8,19.2 16.9,20.5 27,46.4 29.5,72.7 l 31.1,0.1 c -0.6,-6.7 -1.2,-13.4 -2.4,-20 -6.7,-36.2 -26.3,-69.9 -54.4,-93.7 -20.6,-17.5 -46,-30.8 -72.6,-36.3 -7.8,-1.6 -15.5,-2.3 -23.2,-2.9 z m -25.8,0.7 c -32.5,2.2 -64.4,16.7 -89.3,37.5 -6.4,5.3 -12.7,11.1 -18.1,17.4 -19,21.8 -32.1,47.8 -37.7,76.3 -1.4,6.9 -2.1,14 -2.6,21 h 4.2 l 26.8,0.2 c 2.4,-33.3 19.1,-66.4 44.4,-88.2 18.2,-15.7 39,-26.8 62.7,-31.5 4.6,-0.9 9.4,-1.8 14.1,-2.1 V 75 Z m 6.3,51.9 c -27.7,1.7 -55,15.5 -73.4,36.3 -15.9,18 -25.9,40.1 -28.1,64.1 l 0.4,0.5 c 13.8,-3.7 27.5,-7.7 41.2,-11.9 6.1,-1.9 12.5,-3.4 18.4,-5.8 l 41.8,-82.8 z M 348,248 c -12,3 -23.7,6.9 -35.5,10.3 -7.4,2.1 -15.3,3.6 -22.5,6.2 -1.1,0.4 -1.5,0.5 -2.1,1.5 l -39.8,82.5 0.2,0.3 0.7,0.1 c 29.4,-2.5 55.4,-17.7 74.2,-40 11.9,-14.1 19.8,-31.8 23.6,-49.8 0.7,-3.5 1.7,-7.4 1.7,-11 -0.1,0 -0.3,-0.1 -0.5,-0.1 z"
   stroke-linecap="round"
   id="path8" />
</g></svg>
