<?xml version="1.0" encoding="UTF-8" standalone="no"?>
<svg
   xmlns:dc="http://purl.org/dc/elements/1.1/"
   xmlns:cc="http://creativecommons.org/ns#"
   xmlns:rdf="http://www.w3.org/1999/02/22-rdf-syntax-ns#"
   xmlns:svg="http://www.w3.org/2000/svg"
   xmlns="http://www.w3.org/2000/svg"
   xmlns:sodipodi="http://sodipodi.sourceforge.net/DTD/sodipodi-0.dtd"
   xmlns:inkscape="http://www.inkscape.org/namespaces/inkscape"
   version="1.1"
   width="760"
   height="45"
   viewBox="246.26479736328133 175.28 760 45"
   xml:space="preserve"
   id="svg13"
   sodipodi:docname="built.svg"><metadata
   id="metadata17"><rdf:RDF><cc:Work
       rdf:about=""><dc:format>image/svg+xml</dc:format><dc:type
         rdf:resource="http://purl.org/dc/dcmitype/StillImage" /></cc:Work></rdf:RDF></metadata><sodipodi:namedview
   pagecolor="#ffffff"
   bordercolor="#666666"
   borderopacity="1"
   objecttolerance="10"
   gridtolerance="10"
   guidetolerance="10"
   inkscape:pageopacity="0"
   inkscape:pageshadow="2"
   inkscape:window-width="640"
   inkscape:window-height="480"
   id="namedview15" />
<desc
   id="desc2">Created with Fabric.js 5.3.0</desc>
<defs
   id="defs4">
</defs><rect
   width="100%"
   height="100%"
   fill="#ffffff"
   id="rect6" />
<g
   transform="matrix(0.48,0,0,0.48,627.5,201)"
   id="base_text">
		<g
   aria-label="Willemsens Airco-Ventilatie"
   id="text10"
   style="font-style:normal;font-weight:normal;font-size:120px;font-family:f16896;white-space:pre;opacity:1;fill:#333333;fill-rule:nonzero;stroke:none;stroke-width:1;stroke-linecap:butt;stroke-linejoin:miter;stroke-miterlimit:4;stroke-dasharray:none;stroke-dashoffset:0"><path
     d="m -782.57999,-36.579999 q -0.72,-2.52 -1.92,-3.84 -1.08,-1.44 -2.64,-1.92 -1.56,-0.6 -3.96,-0.6 h -1.56 v -5.04 h 33 v 5.04 h -2.76 q -3.6,0 -5.4,1.44 -1.8,1.32 -1.8,4.32 0,0.96 0.24,2.04 0.36,1.08 0.72,2.4 l 11.04,38.3999998 q 1.08,3.6 1.92,7.2000002 0.96,3.48 1.8,6.84 0.84,3.36 1.44,6.24 0.96,-4.68 2.16,-10.2 1.2,-5.64 2.76,-11.4000002 l 14.28,-51.4799998 h 8.64 l 15,51.9599998 q 1.68,5.8800002 3,11.4000002 1.32,5.52 2.16,9.72 0.6,-2.88 1.32,-5.88 0.72,-3.12 1.56,-6.48 0.84,-3.48 1.92,-7.3200002 l 10.56,-37.0799998 q 0.36,-1.44 0.84,-3.36 0.48,-1.92 0.48,-2.88 0,-3.12 -2.04,-4.44 -1.92,-1.44 -5.88,-1.44 h -2.76 v -5.04 h 29.28 v 5.04 h -2.28 q -2.28,0 -3.96,0.72 -1.56,0.6 -2.76,2.64 -1.2,2.04 -2.4,6 l -20.28,71.28 h -10.8 l -19.56,-67.2 -18.36,67.2 h -11.04 z"
     id="path19" /><path
     d="m -665.34011,37.700001 v -5.04 h 1.56 q 2.64,0 4.8,-0.48 2.28,-0.6 3.6,-2.28 1.44,-1.8 1.44,-5.28 v -38.04 q 0,-3.6 -1.44,-5.28 -1.32,-1.8 -3.6,-2.28 -2.16,-0.6 -4.8,-0.6 h -0.36 v -5.04 h 21.48 v 50.64 q 0,3.72 1.32,5.64 1.32,1.8 3.6,2.4 2.28,0.6 4.92,0.6 h 1.56 v 5.04 z m 16.56,-76.32 q -2.88,0 -4.92,-1.68 -1.92,-1.68 -1.92,-5.76 0,-4.2 1.92,-5.76 2.04,-1.68 4.92,-1.68 2.76,0 4.8,1.68 2.04,1.56 2.04,5.76 0,4.08 -2.04,5.76 -2.04,1.68 -4.8,1.68 z"
     id="path21" /><path
     d="m -628.14015,37.700001 v -5.04 h 1.56 q 2.76,0 4.92,-0.6 2.28,-0.6 3.6,-2.4 1.32,-1.92 1.32,-5.64 v -64.32 q 0,-3.6 -1.44,-5.28 -1.32,-1.8 -3.6,-2.28 -2.16,-0.6 -4.8,-0.6 h -1.56 v -5.04 h 22.68 v 77.52 q 0,3.72 1.32,5.64 1.32,1.8 3.6,2.4 2.28,0.6 4.92,0.6 h 1.56 v 5.04 z"
     id="path23" /><path
     d="m -590.94021,37.700001 v -5.04 h 1.56 q 2.76,0 4.92,-0.6 2.28,-0.6 3.6,-2.4 1.32,-1.92 1.32,-5.64 v -64.32 q 0,-3.6 -1.44,-5.28 -1.32,-1.8 -3.6,-2.28 -2.16,-0.6 -4.8,-0.6 h -1.56 v -5.04 h 22.68 v 77.52 q 0,3.72 1.32,5.64 1.32,1.8 3.6,2.4 2.28,0.6 4.92,0.6 h 1.56 v 5.04 z"
     id="path25" /><path
     d="m -520.86028,38.900001 q -13.08,0 -20.52,-8.64 -7.32,-8.64 -7.32,-24.2400002 0,-16.7999998 6.96,-25.3199998 6.96,-8.52 19.68,-8.52 11.64,0 18.24,7.2 6.72,7.2 6.72,21.47999976 V 6.3800008 h -39.96 q 0.24,13.0800002 4.68,19.0800002 4.56,5.88 13.2,5.88 6.24,0 10.56,-2.52 4.44,-2.64 6.6,-5.88 0.84,0.36 1.56,1.44 0.72,1.08 0.72,2.64 0,2.4 -2.28,5.16 -2.28,2.76 -6.96,4.8 -4.68,1.92 -11.88,1.92 z m 11.64,-39.00000024 q 0,-9.59999996 -3,-15.35999976 -2.88,-5.88 -10.08,-5.88 -6.6,0 -10.32,5.52 -3.6,5.4 -4.2,15.71999976 z"
     id="path27" /><path
     d="m -487.74028,37.700001 v -5.04 h 1.56 q 2.76,0 4.8,-0.6 2.04,-0.6 3.24,-2.4 1.2,-1.92 1.2,-5.64 v -37.44 q 0,-3.6 -1.2,-5.28 -1.2,-1.8 -3.36,-2.28 -2.04,-0.6 -4.68,-0.6 h -0.36 v -5.04 h 18.84 l 1.56,9.72 h 0.6 q 2.4,-4.56 5.16,-6.84 2.76,-2.4 6,-3.24 3.24,-0.84 6.96,-0.84 3.84,0 7.2,1.08 3.48,1.08 6.12,3.48 2.64,2.28 4.08,6.36 h 0.96 q 2.4,-4.56 5.28,-6.84 3,-2.4 6.36,-3.24 3.48,-0.84 7.2,-0.84 9.24,0 14.4,5.64 5.16,5.52 5.16,17.8799998 V 24.020001 q 0,3.72 1.2,5.64 1.2,1.8 3.24,2.4 2.16,0.6 4.8,0.6 h 0.36 v 5.04 h -20.88 V -3.6999992 q 0,-7.7999998 -2.88,-12.1199998 -2.76,-4.32 -9.72,-4.32 -4.92,0 -7.92,2.52 -2.88,2.4 -4.2,6.48 -1.2,4.0799998 -1.2,8.8799998 V 24.020001 q 0,3.72 1.2,5.64 1.2,1.8 3.24,2.4 2.16,0.6 4.8,0.6 h 0.36 v 5.04 h -20.88 V -3.6999992 q 0,-7.7999998 -2.88,-12.1199998 -2.76,-4.32 -9.72,-4.32 -5.16,0 -8.28,2.76 -3,2.64 -4.32,7.08 -1.32,4.4399998 -1.32,9.59999976 V 24.620001 q 0,3.48 1.32,5.28 1.44,1.68 3.6,2.28 2.28,0.48 4.92,0.48 h 0.36 v 5.04 z"
     id="path29" /><path
     d="m -352.50032,38.900001 q -6,0 -10.44,-1.44 -4.44,-1.44 -6.96,-4.2 -2.4,-2.88 -2.4,-7.08 0,-3.24 1.32,-5.04 1.32,-1.8 3,-2.52 1.8,-0.72 3.24,-0.72 0,6.24 2.76,10.8 2.88,4.44 10.2,4.44 6.36,0 9.72,-3 3.48,-3.12 3.48,-7.92 0,-3 -1.32,-4.92 -1.2,-1.92 -4.44,-3.72 -3.12,-1.92 -9,-4.4400002 -6.12,-2.76 -10.2,-5.28 -3.96,-2.64 -6,-6 -1.92,-3.48 -1.92,-8.6399998 0,-8.16 6.12,-12.48 6.24,-4.44 16.44,-4.44 5.76,0 9.6,1.56 3.96,1.44 5.88,3.96 2.04,2.52 2.04,5.52 0,3.24 -2.28,5.28 -2.16,1.9199998 -6.36,1.9199998 0,-5.9999998 -2.52,-9.3599998 -2.52,-3.36 -7.8,-3.36 -6.12,0 -8.76,2.76 -2.64,2.64 -2.64,6.84 0,2.9999998 1.44,5.0399998 1.56,2.04 4.8,3.84 3.36,1.68 8.64,3.83999996 6.36,2.64000004 10.32,5.28000004 3.96,2.64 5.76,6.1200002 1.92,3.48 1.92,8.52 0,9.36 -6.48,14.16 -6.48,4.68 -17.16,4.68 z"
     id="path31" /><path
     d="m -289.14054,38.900001 q -13.08,0 -20.52,-8.64 -7.32,-8.64 -7.32,-24.2400002 0,-16.7999998 6.96,-25.3199998 6.96,-8.52 19.68,-8.52 11.64,0 18.24,7.2 6.72,7.2 6.72,21.47999976 V 6.3800008 h -39.96 q 0.24,13.0800002 4.68,19.0800002 4.56,5.88 13.2,5.88 6.24,0 10.56,-2.52 4.44,-2.64 6.6,-5.88 0.84,0.36 1.56,1.44 0.72,1.08 0.72,2.64 0,2.4 -2.28,5.16 -2.28,2.76 -6.96,4.8 -4.68,1.92 -11.88,1.92 z m 11.64,-39.00000024 q 0,-9.59999996 -3,-15.35999976 -2.88,-5.88 -10.08,-5.88 -6.6,0 -10.32,5.52 -3.6,5.4 -4.2,15.71999976 z"
     id="path33" /><path
     d="m -256.02055,37.700001 v -5.04 h 0.96 q 2.76,0 4.92,-0.6 2.28,-0.6 3.6,-2.4 1.32,-1.92 1.32,-5.64 v -37.44 q 0,-3.6 -1.32,-5.28 -1.32,-1.8 -3.48,-2.28 -2.16,-0.6 -4.8,-0.6 h -0.6 v -5.04 h 19.44 l 1.56,9.72 h 0.6 q 2.52,-4.56 5.28,-6.84 2.88,-2.4 6.24,-3.24 3.36,-0.84 7.2,-0.84 9.48,0 14.76,5.64 5.4,5.52 5.4,17.8799998 V 24.020001 q 0,3.72 1.08,5.64 1.2,1.8 3.24,2.4 2.04,0.6 4.68,0.6 h 0.6 v 5.04 h -20.88 V -3.6999992 q 0,-7.7999998 -3,-12.1199998 -2.88,-4.32 -10.2,-4.32 -5.4,0 -8.64,2.76 -3.12,2.64 -4.56,7.08 -1.32,4.4399998 -1.32,9.59999976 V 24.620001 q 0,3.48 1.32,5.28 1.32,1.68 3.48,2.28 2.16,0.48 4.8,0.48 h 0.6 v 5.04 z"
     id="path35" /><path
     d="m -156.78071,38.900001 q -6,0 -10.44,-1.44 -4.44,-1.44 -6.96,-4.2 -2.4,-2.88 -2.4,-7.08 0,-3.24 1.32,-5.04 1.32,-1.8 3,-2.52 1.8,-0.72 3.24,-0.72 0,6.24 2.76,10.8 2.88,4.44 10.2,4.44 6.36,0 9.72,-3 3.48,-3.12 3.48,-7.92 0,-3 -1.32,-4.92 -1.2,-1.92 -4.44,-3.72 -3.12,-1.92 -9,-4.4400002 -6.12,-2.76 -10.2,-5.28 -3.96,-2.64 -6,-6 -1.92,-3.48 -1.92,-8.6399998 0,-8.16 6.12,-12.48 6.24,-4.44 16.44,-4.44 5.76,0 9.6,1.56 3.96,1.44 5.88,3.96 2.04,2.52 2.04,5.52 0,3.24 -2.28,5.28 -2.16,1.9199998 -6.36,1.9199998 0,-5.9999998 -2.52,-9.3599998 -2.52,-3.36 -7.8,-3.36 -6.12,0 -8.76,2.76 -2.64,2.64 -2.64,6.84 0,2.9999998 1.44,5.0399998 1.56,2.04 4.8,3.84 3.36,1.68 8.64,3.83999996 6.36,2.64000004 10.32,5.28000004 3.96,2.64 5.76,6.1200002 1.92,3.48 1.92,8.52 0,9.36 -6.48,14.16 -6.48,4.68 -17.16,4.68 z"
     id="path37" /><path
     d="m -96.901001,37.700001 v -5.04 h 2.28 q 2.4,0 3.84,-0.72 1.44,-0.72 2.64,-2.76 1.2,-2.04 2.64,-5.88 l 26.64,-71.28 h 9.36 l 27.12,74.28 q 0.96,2.52 2.04,3.96 1.08,1.32 2.64,1.92 1.56,0.48 3.84,0.48 h 1.56 v 5.04 h -33 v -5.04 h 2.76 q 3.6,0 5.4,-1.32 1.8,-1.44 1.8,-4.44 0,-0.72 -0.12,-1.32 -0.12,-0.72 -0.36,-1.44 -0.12,-0.84 -0.48,-1.68 l -4.8,-13.4400002 h -31.56 l -4.56,12.6000002 q -0.36,0.96 -0.6,1.92 -0.24,0.96 -0.36,1.8 -0.12,0.72 -0.12,1.44 0,3 1.92,4.44 2.04,1.44 6,1.44 h 2.76 v 5.04 z m 26.52,-34.6800002 h 27.12 l -7.44,-20.9999998 q -1.2,-3.6 -2.4,-6.84 -1.08,-3.24 -2.04,-6.24 -0.84,-3 -1.56,-5.88 -0.6,2.88 -1.44,5.64 -0.72,2.64 -1.68,5.64 -0.96,2.88 -2.4,6.6 z"
     id="path39" /><path
     d="m -9.5410254,37.700001 v -5.04 h 1.56 q 2.64,0 4.8,-0.48 2.28000001,-0.6 3.60000001,-2.28 1.43999999,-1.8 1.43999999,-5.28 v -38.04 q 0,-3.6 -1.43999999,-5.28 -1.32,-1.8 -3.60000001,-2.28 -2.16,-0.6 -4.8,-0.6 h -0.36 v -5.04 H 13.138975 v 50.64 q 0,3.72 1.32,5.64 1.32,1.8 3.6,2.4 2.28,0.6 4.92,0.6 h 1.56 v 5.04 z m 16.56,-76.32 q -2.88,0 -4.92,-1.68 -1.91999999,-1.68 -1.91999999,-5.76 0,-4.2 1.91999999,-5.76 2.04,-1.68 4.92,-1.68 2.76,0 4.8000004,1.68 2.04,1.56 2.04,5.76 0,4.08 -2.04,5.76 -2.0400004,1.68 -4.8000004,1.68 z"
     id="path41" /><path
     d="m 30.058938,37.700001 v -5.04 h 0.36 q 2.76,0 4.92,-0.6 2.28,-0.6 3.6,-2.4 1.32,-1.92 1.32,-5.64 v -37.44 q 0,-3.6 -1.44,-5.28 -1.32,-1.8 -3.6,-2.28 -2.16,-0.6 -4.8,-0.6 h -0.36 v -5.04 h 18.48 l 2.28,11.88 h 0.6 q 1.56,-3.6 3.36,-6.6 1.8,-3 4.8,-4.68 3,-1.8 8.28,-1.8 6.6,0 9.72,2.28 3.24,2.28 3.24,6.48 0,3.72 -2.64,6.12 -2.52,2.4 -8.52,2.4 0,-3.36 -0.6,-5.4 -0.6,-2.04 -2.04,-3 -1.32,-0.96 -3.72,-0.96 -3.36,0 -5.64,2.64 -2.28,2.64 -3.6,6.72 -1.32,4.0799998 -1.92,8.5199998 -0.6,4.32 -0.6,7.8 V 24.620001 q 0,3.48 1.32,5.28 1.44,1.68 3.6,2.28 2.28,0.48 4.92,0.48 h 3.36 v 5.04 z"
     id="path43" /><path
     d="m 116.57877,38.900001 q -7.92,0 -14.16,-3.36 -6.119996,-3.36 -9.719996,-10.56 -3.48,-7.32 -3.48,-19.0800002 0,-12.84 3.48,-20.1599998 3.6,-7.44 9.599996,-10.44 6.12,-3.12 13.68,-3.12 5.04,0 9.84,1.32 4.8,1.32 7.92,4.08 3.12,2.64 3.12,6.84 0,2.76 -1.2,4.44 -1.2,1.6799998 -3.6,2.3999998 -2.28,0.72 -5.88,0.72 0,-3.8399998 -0.96,-6.9599998 -0.84,-3.12 -3,-4.92 -2.16,-1.92 -6.24,-1.92 -4.56,0 -8.04,2.4 -3.36,2.4 -5.28,8.4 -1.8,5.9999998 -1.8,16.7999998 0,8.5200002 1.8,14.1600002 1.92,5.64 5.88,8.4 3.96,2.76 10.44,2.76 3.72,0 6.84,-1.08 3.12,-1.08 5.4,-3 2.4,-1.92 3.72,-4.32 0.96,0.72 1.44,1.92 0.6,1.08 0.6,2.76 0,2.76 -2.28,5.4 -2.28,2.64 -6.84,4.44 -4.44,1.68 -11.28,1.68 z"
     id="path45" /><path
     d="m 176.09863,38.900001 q -12.96,0 -20.4,-8.28 -7.44,-8.28 -7.44,-25.2000002 0,-16.7999998 7.08,-24.9599998 7.2,-8.28 21.12,-8.28 12.96,0 20.4,8.28 7.44,8.16 7.44,24.9599998 0,16.9200002 -7.2,25.2000002 -7.08,8.28 -21,8.28 z m 0.24,-6.24 q 6,0 9.6,-3 3.6,-3.12 5.16,-9.24 1.56,-6.12 1.56,-15.0000002 0,-13.44 -3.72,-20.1599998 -3.72,-6.72 -12.72,-6.72 -9,0 -12.72,6.72 -3.6,6.7199998 -3.6,20.1599998 0,13.4400002 3.72,20.4000002 3.72,6.84 12.72,6.84 z"
     id="path47" /><path
     d="M 213.77862,9.2600008 V 0.74000076 h 31.32 V 9.2600008 Z"
     id="path49" /><path
     d="m 258.17851,-36.579999 q -0.84,-2.52 -1.92,-3.84 -1.08,-1.44 -2.64,-1.92 -1.56,-0.6 -3.96,-0.6 h -1.56 v -5.04 h 33 v 5.04 h -2.76 q -3.6,0 -5.4,1.44 -1.8,1.32 -1.8,4.32 0,0.6 0.12,1.32 0.12,0.72 0.36,1.44 0.24,0.72 0.48,1.68 l 13.2,38.9999998 q 1.2,3.48 2.16,6.9600002 0.96,3.48 1.8,6.72 0.84,3.12 1.44,6 0.6,-2.88 1.32,-6 0.84,-3.12 1.8,-6.48 1.08,-3.4800002 2.4,-7.2000002 l 13.2,-38.1599998 q 0.36,-0.96 0.6,-1.92 0.24,-0.96 0.36,-1.8 0.12,-0.84 0.12,-1.44 0,-3.12 -2.04,-4.44 -1.92,-1.44 -5.88,-1.44 h -2.76 v -5.04 h 29.28 v 5.04 h -2.28 q -2.28,0 -3.84,0.72 -1.56,0.72 -2.76,2.76 -1.2,1.92 -2.52,5.88 l -24.84,71.28 h -8.76 z"
     id="path51" /><path
     d="m 356.33832,38.900001 q -13.08,0 -20.52,-8.64 -7.32,-8.64 -7.32,-24.2400002 0,-16.7999998 6.96,-25.3199998 6.96,-8.52 19.68,-8.52 11.64,0 18.24,7.2 6.72,7.2 6.72,21.47999976 V 6.3800008 h -39.96 q 0.24,13.0800002 4.68,19.0800002 4.56,5.88 13.2,5.88 6.24,0 10.56,-2.52 4.44,-2.64 6.6,-5.88 0.84,0.36 1.56,1.44 0.72,1.08 0.72,2.64 0,2.4 -2.28,5.16 -2.28,2.76 -6.96,4.8 -4.68,1.92 -11.88,1.92 z m 11.64,-39.00000024 q 0,-9.59999996 -3,-15.35999976 -2.88,-5.88 -10.08,-5.88 -6.6,0 -10.32,5.52 -3.6,5.4 -4.2,15.71999976 z"
     id="path53" /><path
     d="m 389.45827,37.700001 v -5.04 h 0.96 q 2.76,0 4.92,-0.6 2.28,-0.6 3.6,-2.4 1.32,-1.92 1.32,-5.64 v -37.44 q 0,-3.6 -1.32,-5.28 -1.32,-1.8 -3.48,-2.28 -2.16,-0.6 -4.8,-0.6 h -0.6 v -5.04 h 19.44 l 1.56,9.72 h 0.6 q 2.52,-4.56 5.28,-6.84 2.88,-2.4 6.24,-3.24 3.36,-0.84 7.2,-0.84 9.48,0 14.76,5.64 5.4,5.52 5.4,17.8799998 V 24.020001 q 0,3.72 1.08,5.64 1.2,1.8 3.24,2.4 2.04,0.6 4.68,0.6 h 0.6 v 5.04 h -20.88 V -3.6999992 q 0,-7.7999998 -3,-12.1199998 -2.88,-4.32 -10.2,-4.32 -5.4,0 -8.64,2.76 -3.12,2.64 -4.56,7.08 -1.32,4.4399998 -1.32,9.59999976 V 24.620001 q 0,3.48 1.32,5.28 1.32,1.68 3.48,2.28 2.16,0.48 4.8,0.48 h 0.6 v 5.04 z"
     id="path55" /><path
     d="m 492.29805,38.900001 q -9.12,0 -13.32,-4.08 -4.08,-4.2 -4.08,-14.52 v -40.08 h -9.12 v -4.8 q 2.16,0 4.8,-0.84 2.64,-0.96 4.56,-3 2.04,-2.16 3.36,-5.28 1.32,-3.12 2.16,-7.68 h 5.52 v 14.76 h 15.72 v 6.84 h -15.72 v 40.44 q 0,6.12 2.52,9 2.52,2.88 6.6,2.88 2.16,0 3.96,-0.24 1.8,-0.24 3.72,-0.6 v 5.28 q -1.56,0.72 -4.68,1.32 -3.12,0.6 -6,0.6 z"
     id="path57" /><path
     d="m 508.49804,37.700001 v -5.04 h 1.56 q 2.64,0 4.8,-0.48 2.28,-0.6 3.6,-2.28 1.44,-1.8 1.44,-5.28 v -38.04 q 0,-3.6 -1.44,-5.28 -1.32,-1.8 -3.6,-2.28 -2.16,-0.6 -4.8,-0.6 h -0.36 v -5.04 h 21.48 v 50.64 q 0,3.72 1.32,5.64 1.32,1.8 3.6,2.4 2.28,0.6 4.92,0.6 h 1.56 v 5.04 z m 16.56,-76.32 q -2.88,0 -4.92,-1.68 -1.92,-1.68 -1.92,-5.76 0,-4.2 1.92,-5.76 2.04,-1.68 4.92,-1.68 2.76,0 4.8,1.68 2.04,1.56 2.04,5.76 0,4.08 -2.04,5.76 -2.04,1.68 -4.8,1.68 z"
     id="path59" /><path
     d="m 545.69794,37.700001 v -5.04 h 1.56 q 2.76,0 4.92,-0.6 2.28,-0.6 3.6,-2.4 1.32,-1.92 1.32,-5.64 v -64.32 q 0,-3.6 -1.44,-5.28 -1.32,-1.8 -3.6,-2.28 -2.16,-0.6 -4.8,-0.6 h -1.56 v -5.04 h 22.68 v 77.52 q 0,3.72 1.32,5.64 1.32,1.8 3.6,2.4 2.28,0.6 4.92,0.6 h 1.56 v 5.04 z"
     id="path61" /><path
     d="m 605.93789,38.900001 q -5.28,0 -9.6,-2.04 -4.2,-2.16 -6.6,-6.36 -2.4,-4.32 -2.4,-10.8 0,-9.6 6.72,-14.1600002 6.84,-4.56000004 20.64,-5.04000004 l 9.96,-0.36 V -7.0599992 q 0,-4.3199998 -0.72,-7.5599998 -0.72,-3.36 -3.12,-5.28 -2.4,-1.92 -7.32,-1.92 -4.56,0 -6.96,1.68 -2.4,1.68 -3.24,4.68 -0.72,2.88 -0.72,6.7199998 -5.04,0 -7.68,-1.6799998 -2.52,-1.8 -2.52,-5.88 0,-4.2 2.88,-6.72 3,-2.52 7.92,-3.6 4.92,-1.2 10.8,-1.2 11.04,0 16.44,4.68 5.52,4.68 5.52,16.0799998 V 24.020001 q 0,3.36 0.72,5.28 0.72,1.8 2.4,2.64 1.68,0.72 4.32,0.72 h 0.36 v 5.04 h -16.2 l -1.92,-10.32 h -0.96 q -2.52,3.36 -4.92,6 -2.4,2.52 -5.64,4.08 -3.12,1.44 -8.16,1.44 z m 2.76,-7.44 q 4.92,0 8.4,-2.04 3.6,-2.04 5.52,-5.76 2.04,-3.84 2.04,-8.88 V 5.0600008 l -7.68,0.36 q -6.84,0.24 -10.8,2.04 -3.84,1.8 -5.52,5.0400002 -1.68,3.12 -1.68,7.8 0,3.72 1.08,6.24 1.08,2.4 3.24,3.72 2.16,1.2 5.4,1.2 z"
     id="path63" /><path
     d="m 677.69783,38.900001 q -9.12,0 -13.32,-4.08 -4.08,-4.2 -4.08,-14.52 v -40.08 h -9.12 v -4.8 q 2.16,0 4.8,-0.84 2.64,-0.96 4.56,-3 2.04,-2.16 3.36,-5.28 1.32,-3.12 2.16,-7.68 h 5.52 v 14.76 h 15.72 v 6.84 h -15.72 v 40.44 q 0,6.12 2.52,9 2.52,2.88 6.6,2.88 2.16,0 3.96,-0.24 1.8,-0.24 3.72,-0.6 v 5.28 q -1.56,0.72 -4.68,1.32 -3.12,0.6 -6,0.6 z"
     id="path65" /><path
     d="m 693.89782,37.700001 v -5.04 h 1.56 q 2.64,0 4.8,-0.48 2.28,-0.6 3.6,-2.28 1.44,-1.8 1.44,-5.28 v -38.04 q 0,-3.6 -1.44,-5.28 -1.32,-1.8 -3.6,-2.28 -2.16,-0.6 -4.8,-0.6 h -0.36 v -5.04 h 21.48 v 50.64 q 0,3.72 1.32,5.64 1.32,1.8 3.6,2.4 2.28,0.6 4.92,0.6 h 1.56 v 5.04 z m 16.56,-76.32 q -2.88,0 -4.92,-1.68 -1.92,-1.68 -1.92,-5.76 0,-4.2 1.92,-5.76 2.04,-1.68 4.92,-1.68 2.76,0 4.8,1.68 2.04,1.56 2.04,5.76 0,4.08 -2.04,5.76 -2.04,1.68 -4.8,1.68 z"
     id="path67" /><path
     d="m 763.97772,38.900001 q -13.08,0 -20.52,-8.64 -7.32,-8.64 -7.32,-24.2400002 0,-16.7999998 6.96,-25.3199998 6.96,-8.52 19.68,-8.52 11.64,0 18.24,7.2 6.72,7.2 6.72,21.47999976 V 6.3800008 h -39.96 q 0.24,13.0800002 4.68,19.0800002 4.56,5.88 13.2,5.88 6.24,0 10.56,-2.52 4.44,-2.64 6.6,-5.88 0.84,0.36 1.56,1.44 0.72,1.08 0.72,2.64 0,2.4 -2.28,5.16 -2.28,2.76 -6.96,4.8 -4.68,1.92 -11.88,1.92 z m 11.64,-39.00000024 q 0,-9.59999996 -3,-15.35999976 -2.88,-5.88 -10.08,-5.88 -6.6,0 -10.32,5.52 -3.6,5.4 -4.2,15.71999976 z"
     id="path69" /></g>
</g></svg>
