<?xml version="1.0" encoding="UTF-8" standalone="no"?>
<svg
   version="1.1"
   width="376.93915"
   height="99.926094"
   viewBox="312.75174 151.43 376.93915 99.926094"
   xml:space="preserve"
   id="svg19"
   xmlns="http://www.w3.org/2000/svg"
   xmlns:svg="http://www.w3.org/2000/svg"
   xmlns:rdf="http://www.w3.org/1999/02/22-rdf-syntax-ns#"
   xmlns:cc="http://creativecommons.org/ns#"
   xmlns:dc="http://purl.org/dc/elements/1.1/"><metadata
   id="metadata23"><rdf:RDF><cc:Work
       rdf:about=""><dc:format>image/svg+xml</dc:format><dc:type
         rdf:resource="http://purl.org/dc/dcmitype/StillImage" /></cc:Work></rdf:RDF></metadata>
<desc
   id="desc2">Created with Fabric.js 5.3.0</desc>
<defs
   id="defs4" />
<g
   transform="matrix(0.39,0,0,0.39,741.61578,201.11376)"
   id="base_text">
		<g
   aria-label="Willemsens Airco-Ventilatie"
   id="text10"
   style="font-style:normal;font-weight:normal;font-size:120px;font-family:f16896;white-space:pre;opacity:1;fill:#333333;fill-rule:nonzero;stroke:none;stroke-width:1;stroke-linecap:butt;stroke-linejoin:miter;stroke-miterlimit:4;stroke-dasharray:none;stroke-dashoffset:0"><path
     d="m -782.57999,-36.579999 q -0.72,-2.52 -1.92,-3.84 -1.08,-1.44 -2.64,-1.92 -1.56,-0.6 -3.96,-0.6 h -1.56 v -5.04 h 33 v 5.04 h -2.76 q -3.6,0 -5.4,1.44 -1.8,1.32 -1.8,4.32 0,0.96 0.24,2.04 0.36,1.08 0.72,2.4 l 11.04,38.3999998 q 1.08,3.6 1.92,7.2000002 0.96,3.48 1.8,6.84 0.84,3.36 1.44,6.24 0.96,-4.68 2.16,-10.2 1.2,-5.64 2.76,-11.4000002 l 14.28,-51.4799998 h 8.64 l 15,51.9599998 q 1.68,5.8800002 3,11.4000002 1.32,5.52 2.16,9.72 0.6,-2.88 1.32,-5.88 0.72,-3.12 1.56,-6.48 0.84,-3.48 1.92,-7.3200002 l 10.56,-37.0799998 q 0.36,-1.44 0.84,-3.36 0.48,-1.92 0.48,-2.88 0,-3.12 -2.04,-4.44 -1.92,-1.44 -5.88,-1.44 h -2.76 v -5.04 h 29.28 v 5.04 h -2.28 q -2.28,0 -3.96,0.72 -1.56,0.6 -2.76,2.64 -1.2,2.04 -2.4,6 l -20.28,71.28 h -10.8 l -19.56,-67.2 -18.36,67.2 h -11.04 z"
     id="path25" /><path
     d="m -665.34011,37.700001 v -5.04 h 1.56 q 2.64,0 4.8,-0.48 2.28,-0.6 3.6,-2.28 1.44,-1.8 1.44,-5.28 v -38.04 q 0,-3.6 -1.44,-5.28 -1.32,-1.8 -3.6,-2.28 -2.16,-0.6 -4.8,-0.6 h -0.36 v -5.04 h 21.48 v 50.64 q 0,3.72 1.32,5.64 1.32,1.8 3.6,2.4 2.28,0.6 4.92,0.6 h 1.56 v 5.04 z m 16.56,-76.32 q -2.88,0 -4.92,-1.68 -1.92,-1.68 -1.92,-5.76 0,-4.2 1.92,-5.76 2.04,-1.68 4.92,-1.68 2.76,0 4.8,1.68 2.04,1.56 2.04,5.76 0,4.08 -2.04,5.76 -2.04,1.68 -4.8,1.68 z"
     id="path27" /><path
     d="m -628.14015,37.700001 v -5.04 h 1.56 q 2.76,0 4.92,-0.6 2.28,-0.6 3.6,-2.4 1.32,-1.92 1.32,-5.64 v -64.32 q 0,-3.6 -1.44,-5.28 -1.32,-1.8 -3.6,-2.28 -2.16,-0.6 -4.8,-0.6 h -1.56 v -5.04 h 22.68 v 77.52 q 0,3.72 1.32,5.64 1.32,1.8 3.6,2.4 2.28,0.6 4.92,0.6 h 1.56 v 5.04 z"
     id="path29" /><path
     d="m -590.94021,37.700001 v -5.04 h 1.56 q 2.76,0 4.92,-0.6 2.28,-0.6 3.6,-2.4 1.32,-1.92 1.32,-5.64 v -64.32 q 0,-3.6 -1.44,-5.28 -1.32,-1.8 -3.6,-2.28 -2.16,-0.6 -4.8,-0.6 h -1.56 v -5.04 h 22.68 v 77.52 q 0,3.72 1.32,5.64 1.32,1.8 3.6,2.4 2.28,0.6 4.92,0.6 h 1.56 v 5.04 z"
     id="path31" /><path
     d="m -520.86028,38.900001 q -13.08,0 -20.52,-8.64 -7.32,-8.64 -7.32,-24.2400002 0,-16.7999998 6.96,-25.3199998 6.96,-8.52 19.68,-8.52 11.64,0 18.24,7.2 6.72,7.2 6.72,21.47999976 V 6.3800008 h -39.96 q 0.24,13.0800002 4.68,19.0800002 4.56,5.88 13.2,5.88 6.24,0 10.56,-2.52 4.44,-2.64 6.6,-5.88 0.84,0.36 1.56,1.44 0.72,1.08 0.72,2.64 0,2.4 -2.28,5.16 -2.28,2.76 -6.96,4.8 -4.68,1.92 -11.88,1.92 z m 11.64,-39.00000024 q 0,-9.59999996 -3,-15.35999976 -2.88,-5.88 -10.08,-5.88 -6.6,0 -10.32,5.52 -3.6,5.4 -4.2,15.71999976 z"
     id="path33" /><path
     d="m -487.74028,37.700001 v -5.04 h 1.56 q 2.76,0 4.8,-0.6 2.04,-0.6 3.24,-2.4 1.2,-1.92 1.2,-5.64 v -37.44 q 0,-3.6 -1.2,-5.28 -1.2,-1.8 -3.36,-2.28 -2.04,-0.6 -4.68,-0.6 h -0.36 v -5.04 h 18.84 l 1.56,9.72 h 0.6 q 2.4,-4.56 5.16,-6.84 2.76,-2.4 6,-3.24 3.24,-0.84 6.96,-0.84 3.84,0 7.2,1.08 3.48,1.08 6.12,3.48 2.64,2.28 4.08,6.36 h 0.96 q 2.4,-4.56 5.28,-6.84 3,-2.4 6.36,-3.24 3.48,-0.84 7.2,-0.84 9.24,0 14.4,5.64 5.16,5.52 5.16,17.8799998 V 24.020001 q 0,3.72 1.2,5.64 1.2,1.8 3.24,2.4 2.16,0.6 4.8,0.6 h 0.36 v 5.04 h -20.88 V -3.6999992 q 0,-7.7999998 -2.88,-12.1199998 -2.76,-4.32 -9.72,-4.32 -4.92,0 -7.92,2.52 -2.88,2.4 -4.2,6.48 -1.2,4.0799998 -1.2,8.8799998 V 24.020001 q 0,3.72 1.2,5.64 1.2,1.8 3.24,2.4 2.16,0.6 4.8,0.6 h 0.36 v 5.04 h -20.88 V -3.6999992 q 0,-7.7999998 -2.88,-12.1199998 -2.76,-4.32 -9.72,-4.32 -5.16,0 -8.28,2.76 -3,2.64 -4.32,7.08 -1.32,4.4399998 -1.32,9.59999976 V 24.620001 q 0,3.48 1.32,5.28 1.44,1.68 3.6,2.28 2.28,0.48 4.92,0.48 h 0.36 v 5.04 z"
     id="path35" /><path
     d="m -352.50032,38.900001 q -6,0 -10.44,-1.44 -4.44,-1.44 -6.96,-4.2 -2.4,-2.88 -2.4,-7.08 0,-3.24 1.32,-5.04 1.32,-1.8 3,-2.52 1.8,-0.72 3.24,-0.72 0,6.24 2.76,10.8 2.88,4.44 10.2,4.44 6.36,0 9.72,-3 3.48,-3.12 3.48,-7.92 0,-3 -1.32,-4.92 -1.2,-1.92 -4.44,-3.72 -3.12,-1.92 -9,-4.4400002 -6.12,-2.76 -10.2,-5.28 -3.96,-2.64 -6,-6 -1.92,-3.48 -1.92,-8.6399998 0,-8.16 6.12,-12.48 6.24,-4.44 16.44,-4.44 5.76,0 9.6,1.56 3.96,1.44 5.88,3.96 2.04,2.52 2.04,5.52 0,3.24 -2.28,5.28 -2.16,1.9199998 -6.36,1.9199998 0,-5.9999998 -2.52,-9.3599998 -2.52,-3.36 -7.8,-3.36 -6.12,0 -8.76,2.76 -2.64,2.64 -2.64,6.84 0,2.9999998 1.44,5.0399998 1.56,2.04 4.8,3.84 3.36,1.68 8.64,3.83999996 6.36,2.64000004 10.32,5.28000004 3.96,2.64 5.76,6.1200002 1.92,3.48 1.92,8.52 0,9.36 -6.48,14.16 -6.48,4.68 -17.16,4.68 z"
     id="path37" /><path
     d="m -289.14054,38.900001 q -13.08,0 -20.52,-8.64 -7.32,-8.64 -7.32,-24.2400002 0,-16.7999998 6.96,-25.3199998 6.96,-8.52 19.68,-8.52 11.64,0 18.24,7.2 6.72,7.2 6.72,21.47999976 V 6.3800008 h -39.96 q 0.24,13.0800002 4.68,19.0800002 4.56,5.88 13.2,5.88 6.24,0 10.56,-2.52 4.44,-2.64 6.6,-5.88 0.84,0.36 1.56,1.44 0.72,1.08 0.72,2.64 0,2.4 -2.28,5.16 -2.28,2.76 -6.96,4.8 -4.68,1.92 -11.88,1.92 z m 11.64,-39.00000024 q 0,-9.59999996 -3,-15.35999976 -2.88,-5.88 -10.08,-5.88 -6.6,0 -10.32,5.52 -3.6,5.4 -4.2,15.71999976 z"
     id="path39" /><path
     d="m -256.02055,37.700001 v -5.04 h 0.96 q 2.76,0 4.92,-0.6 2.28,-0.6 3.6,-2.4 1.32,-1.92 1.32,-5.64 v -37.44 q 0,-3.6 -1.32,-5.28 -1.32,-1.8 -3.48,-2.28 -2.16,-0.6 -4.8,-0.6 h -0.6 v -5.04 h 19.44 l 1.56,9.72 h 0.6 q 2.52,-4.56 5.28,-6.84 2.88,-2.4 6.24,-3.24 3.36,-0.84 7.2,-0.84 9.48,0 14.76,5.64 5.4,5.52 5.4,17.8799998 V 24.020001 q 0,3.72 1.08,5.64 1.2,1.8 3.24,2.4 2.04,0.6 4.68,0.6 h 0.6 v 5.04 h -20.88 V -3.6999992 q 0,-7.7999998 -3,-12.1199998 -2.88,-4.32 -10.2,-4.32 -5.4,0 -8.64,2.76 -3.12,2.64 -4.56,7.08 -1.32,4.4399998 -1.32,9.59999976 V 24.620001 q 0,3.48 1.32,5.28 1.32,1.68 3.48,2.28 2.16,0.48 4.8,0.48 h 0.6 v 5.04 z"
     id="path41" /><path
     d="m -156.78071,38.900001 q -6,0 -10.44,-1.44 -4.44,-1.44 -6.96,-4.2 -2.4,-2.88 -2.4,-7.08 0,-3.24 1.32,-5.04 1.32,-1.8 3,-2.52 1.8,-0.72 3.24,-0.72 0,6.24 2.76,10.8 2.88,4.44 10.2,4.44 6.36,0 9.72,-3 3.48,-3.12 3.48,-7.92 0,-3 -1.32,-4.92 -1.2,-1.92 -4.44,-3.72 -3.12,-1.92 -9,-4.4400002 -6.12,-2.76 -10.2,-5.28 -3.96,-2.64 -6,-6 -1.92,-3.48 -1.92,-8.6399998 0,-8.16 6.12,-12.48 6.24,-4.44 16.44,-4.44 5.76,0 9.6,1.56 3.96,1.44 5.88,3.96 2.04,2.52 2.04,5.52 0,3.24 -2.28,5.28 -2.16,1.9199998 -6.36,1.9199998 0,-5.9999998 -2.52,-9.3599998 -2.52,-3.36 -7.8,-3.36 -6.12,0 -8.76,2.76 -2.64,2.64 -2.64,6.84 0,2.9999998 1.44,5.0399998 1.56,2.04 4.8,3.84 3.36,1.68 8.64,3.83999996 6.36,2.64000004 10.32,5.28000004 3.96,2.64 5.76,6.1200002 1.92,3.48 1.92,8.52 0,9.36 -6.48,14.16 -6.48,4.68 -17.16,4.68 z"
     id="path43" /></g>
</g><g
   transform="matrix(0.39,0,0,0.39,424.65578,201.11376)"
   id="separator_line">
<path
   id="rect13"
   style="opacity:1;fill:#333333;fill-rule:nonzero;stroke:none;stroke-width:1;stroke-linecap:butt;stroke-linejoin:miter;stroke-miterlimit:4;stroke-dasharray:none;stroke-dashoffset:0"
   d="m -2.5,-67.800003 h 5 V 67.800003 h -5 z" />
</g><g
   transform="matrix(0.21,0,0,0.21,362.68578,201.39376)"
   id="main_icon">
<path
   style="opacity:1;fill:#333333;fill-rule:nonzero;stroke:none;stroke-width:1;stroke-linecap:butt;stroke-linejoin:miter;stroke-miterlimit:4;stroke-dasharray:none;stroke-dashoffset:0"
   transform="translate(-237.82,-237.89)"
   d="m 231.7,0 c 14.2,-0.2 28.5,0.5 42.5,2.6 46.3,7 89.4,28.7 123.9,60.1 37.2,33.9 63.2,79.9 72.9,129.3 2.6,13.4 3.9,27 4.5,40.6 0.3,7.7 -0.1,15.6 -0.7,23.3 -2.5,33.4 -12.5,65.5 -28,95.1 -1.9,3.5 -4.1,6.9 -6.2,10.3 -8.2,13 -17.2,25.7 -27.6,37 -34.9,37.9 -82.9,64.9 -133.7,74 -11.7,2.1 -23.9,3 -35.8,3.5 -31.7,0.2 -63.4,-4.7 -92.9,-16.6 -13.7,-5.5 -26.7,-12.5 -39,-20.5 C 98,430 85.3,420.3 73.6,409.2 63.7,399.8 54.8,389.2 46.7,378.1 42,371.7 37.4,365.2 33.4,358.4 12.7,323.6 1.1,283.4 0.1,242.9 -0.2,229.2 0.6,215.1 2.6,201.5 4.3,190.6 7.1,179.6 10.4,169 21.4,134.1 39.8,101.8 65.1,75.2 82.9,56.6 103.4,41 126,28.6 c 4.5,-2.5 9,-5 13.7,-7.1 C 151.3,16.2 163.3,12 175.5,8.6 184.6,6.1 193.7,3.9 203,2.4 212.5,0.9 222.1,0.3 231.7,0 Z m 19.2,127.2 c 0.2,11.8 1,23.5 1.5,35.3 0.1,2.9 0.3,5.8 0.4,8.7 0.1,1.6 0.2,3.4 0,5 -0.3,2.3 -2.5,5 -3.6,7 -1.2,2.2 -2.3,4.5 -3.3,6.7 -1.8,3.9 -3.3,8 -5,11.9 -4.3,9.9 -8.6,19.7 -12.9,29.6 -2.1,4.8 -4.2,9.5 -6.4,14.2 -1.3,2.8 -2.4,6 -4.7,8.3 -2.7,2.7 -6.7,3.1 -10.3,3 -2.9,-0.1 -5.7,-0.6 -8.6,-0.8 -8.3,-0.6 -16.6,-1.3 -24.9,-1.9 -9.3,-0.7 -18.5,-1.6 -27.8,-2.4 -6,-0.5 -12.3,-0.8 -18.1,-2.2 1.1,6.4 2.2,12.7 4,19 6.3,21.3 18.7,40.2 35.5,54.7 3.8,3.3 7.9,5.3 8.1,11 0.1,2 -0.1,3.4 -0.9,5.2 l -0.2,0.3 c -1.1,2.3 -3.3,4.1 -5.8,4.8 -2,0.6 -4.3,0.8 -6.3,0.1 l -0.4,-0.1 c -3.5,-1.3 -6.9,-4.5 -9.8,-7 -15.1,-13.1 -26.6,-29 -34.8,-47.2 -4.4,-9.7 -7.5,-20.2 -9.4,-30.7 -0.6,-3.6 -1.3,-7.3 -1.5,-11 l -30.8,-0.1 c 0.2,7.8 1.4,15.6 3.1,23.2 4.4,19.8 12.1,39.6 23.5,56.4 4.1,6.1 9,11.8 13.7,17.5 1.6,1.9 3.4,3.7 4.8,5.8 0.6,0.9 1,2.1 1.2,3.2 0.5,3.2 -0.3,6.3 -2.5,8.6 -2.1,2.1 -5.1,3.3 -8.1,3.3 -2.7,0 -4.8,-0.6 -6.8,-2.6 -3.2,-3.2 -6.1,-6.7 -9,-10.2 C 89.2,347 83.7,339.9 79.2,332.3 70,317.3 63.4,300.4 59,283.1 c -2.5,-9.6 -4.3,-19.3 -4.9,-29.2 -0.1,-1.1 -0.1,-2.3 -0.2,-3.4 0,-0.4 0,-1.8 -0.1,-1.8 -0.2,-0.1 -2.3,-0.1 -2.7,-0.1 l -28.5,0.1 -1.5,0.1 c -1.2,1.8 2.7,26.2 3.4,29.7 1.4,6.7 2.8,13.4 4.8,20 11.9,40.5 35.9,78 68.2,105.4 7.2,6.1 15.2,11.8 23.2,17 34.3,22.3 65.2,28.7 73.6,30.4 7.7,1.5 17.9,3.1 30.1,3.6 -0.4,-77.7 -0.8,-127.5 -1.2,-134.9 -0.3,-5.6 0.3,-11.2 0.2,-16.9 0,-0.5 0,-1.8 0.3,-3.5 0.5,-2.3 1.3,-3.9 2,-5.2 1.3,-2.4 2.2,-5.1 3.3,-7.6 3,-6.9 6.1,-13.9 9.1,-20.8 3.3,-7.5 6.6,-15 9.8,-22.5 2.7,-6.3 5.2,-12.8 8.3,-18.9 0.6,-1.1 1.2,-2 2.1,-2.9 2.1,-2.1 4.9,-3.6 7.9,-3.6 l 82.2,8.2 c -1.4,-10.2 -3.6,-19.9 -7.4,-29.5 -7,-18 -19.4,-34.6 -34.8,-46.2 -6.7,-5 -13.6,-9.6 -21.1,-13.3 -10.8,-5.4 -22.4,-8.6 -34.2,-10.1 z M 248.6,20.9 v 32.4 c 6.9,0.7 13.9,1.3 20.7,2.5 23.5,4.2 46.5,13 66.6,25.8 5.8,3.7 11.3,7.9 16.7,12.2 9.6,7.8 18.9,16.4 26.8,26 18.1,21.8 31.8,48.5 38,76.2 2.3,10.3 3.5,20.9 4.4,31.4 l 32.7,0.1 c -0.4,-11.5 -2.2,-23.3 -4.6,-34.6 -1.3,-5.8 -2.5,-11.6 -4.2,-17.3 -11,-36.8 -32.6,-71 -60.8,-97.1 C 378.9,72.9 372.6,67.9 366,63.1 357.9,57.1 349.4,51.4 340.5,46.6 312.6,31 280.6,22 248.6,20.9 Z m 173.6,227.8 c -1.4,17.9 -4.9,36.3 -11.2,53.2 -6.5,17.7 -15.9,34.4 -27.4,49.3 -6.7,8.7 -13.9,17 -22.3,24.1 -27.1,23.2 -59.9,40.7 -95.5,45.7 -5.7,0.8 -11.5,1.5 -17.2,1.5 l 0.3,32.7 28.3,-3.4 c 7.4,-1.4 14.8,-2.9 22.1,-5.1 47.3,-14.1 89.6,-44.8 117.5,-85.6 12.9,-18.8 22.5,-39.6 29.1,-61.5 1.4,-4.8 2.8,-9.5 3.9,-14.3 2.6,-12.1 4.1,-24.2 5,-36.5 z M 222.4,21 C 166,24.6 111.8,52.5 74.6,94.9 c -13.6,15.4 -24.3,32.4 -33,51 -12.1,25.8 -19.5,52.7 -20.7,81.3 l 4.9,0.1 h 27.7 c 1.8,-39.1 17.5,-77.7 42.6,-107.6 5.7,-6.8 12.1,-13.1 18.7,-19.1 4.6,-4.1 9.4,-7.9 14.4,-11.5 22.6,-16.6 48.5,-28.2 76.1,-33.2 7.3,-1.3 14.6,-2.3 22.1,-2.5 l -0.2,-32.5 z m 147.5,227.6 c -0.7,7.5 -2.3,15 -4.2,22.3 -2.4,9 -5.5,17.9 -9.7,26.2 -2.3,4.6 -5.2,9.1 -8,13.5 -6.1,9.6 -13.4,18.7 -22.2,26.1 -12.4,10.4 -26.4,19.9 -41.6,25.8 -11.4,4.4 -23.7,7.1 -35.9,7.9 l 0.2,31.7 c 68.4,-17 114.3,-54 130,-80.7 15.1,-25.6 20,-53.3 20,-53.3 1.2,-6.4 1.5,-12.9 2.2,-19.4 z M 248.4,74.4 c 0.1,3.7 0,30.4 0.6,31.5 5.6,0.5 11.2,1.2 16.8,2.4 20.2,4.5 38.7,14.1 54.8,27 7.2,5.8 13.9,12.1 19.8,19.2 16.9,20.5 27,46.4 29.5,72.7 l 31.1,0.1 c -0.6,-6.7 -1.2,-13.4 -2.4,-20 -6.7,-36.2 -26.3,-69.9 -54.4,-93.7 -20.6,-17.5 -46,-30.8 -72.6,-36.3 -7.8,-1.6 -15.5,-2.3 -23.2,-2.9 z m -25.8,0.7 c -32.5,2.2 -64.4,16.7 -89.3,37.5 -6.4,5.3 -12.7,11.1 -18.1,17.4 -19,21.8 -32.1,47.8 -37.7,76.3 -1.4,6.9 -2.1,14 -2.6,21 h 4.2 l 26.8,0.2 c 2.4,-33.3 19.1,-66.4 44.4,-88.2 18.2,-15.7 39,-26.8 62.7,-31.5 4.6,-0.9 9.4,-1.8 14.1,-2.1 V 75 Z m 6.3,51.9 c -27.7,1.7 -55,15.5 -73.4,36.3 -15.9,18 -25.9,40.1 -28.1,64.1 l 0.4,0.5 c 13.8,-3.7 27.5,-7.7 41.2,-11.9 6.1,-1.9 12.5,-3.4 18.4,-5.8 l 41.8,-82.8 z M 348,248 c -12,3 -23.7,6.9 -35.5,10.3 -7.4,2.1 -15.3,3.6 -22.5,6.2 -1.1,0.4 -1.5,0.5 -2.1,1.5 l -39.8,82.5 0.2,0.3 0.7,0.1 c 29.4,-2.5 55.4,-17.7 74.2,-40 11.9,-14.1 19.8,-31.8 23.6,-49.8 0.7,-3.5 1.7,-7.4 1.7,-11 -0.1,0 -0.3,-0.1 -0.5,-0.1 z"
   stroke-linecap="round"
   id="path16" />
</g></svg>
