<?xml version="1.0" encoding="UTF-8" standalone="no"?>
<svg
   version="1.1"
   width="370.25623"
   height="99.926094"
   viewBox="312.75174 151.43 370.25623 99.926094"
   xml:space="preserve"
   id="svg19"
   xmlns="http://www.w3.org/2000/svg"
   xmlns:svg="http://www.w3.org/2000/svg"
   xmlns:rdf="http://www.w3.org/1999/02/22-rdf-syntax-ns#"
   xmlns:cc="http://creativecommons.org/ns#"
   xmlns:dc="http://purl.org/dc/elements/1.1/"><metadata
   id="metadata23"><rdf:RDF><cc:Work
       rdf:about=""><dc:format>image/svg+xml</dc:format><dc:type
         rdf:resource="http://purl.org/dc/dcmitype/StillImage" /></cc:Work></rdf:RDF></metadata>
<desc
   id="desc2">Created with Fabric.js 5.3.0</desc>
<defs
   id="defs4" />
<path
   id="rect13"
   style="opacity:1;fill:#333333;fill-rule:nonzero;stroke:none;stroke-width:0.39;stroke-linecap:butt;stroke-linejoin:miter;stroke-miterlimit:4;stroke-dasharray:none;stroke-dashoffset:0"
   d="m 423.68077,174.67176 h 1.95 v 52.884 h -1.95 z" /><path
   style="opacity:1;fill:#333333;fill-rule:nonzero;stroke:none;stroke-width:0.21;stroke-linecap:butt;stroke-linejoin:miter;stroke-miterlimit:4;stroke-dasharray:none;stroke-dashoffset:0"
   d="m 361.40057,151.43686 c 2.982,-0.042 5.985,0.105 8.925,0.546 9.723,1.47 18.774,6.027 26.019,12.621 7.812,7.119 13.272,16.779 15.309,27.153 0.546,2.814 0.819,5.67 0.945,8.526 0.063,1.617 -0.021,3.276 -0.147,4.893 -0.525,7.014 -2.625,13.755 -5.88,19.971 -0.399,0.735 -0.861,1.449 -1.302,2.163 -1.722,2.73 -3.612,5.397 -5.796,7.77 -7.329,7.959 -17.409,13.629 -28.077,15.54 -2.457,0.441 -5.019,0.63 -7.518,0.735 -6.657,0.042 -13.314,-0.987 -19.509,-3.486 -2.877,-1.155 -5.607,-2.625 -8.19,-4.305 -2.856,-1.827 -5.523,-3.864 -7.98,-6.195 -2.079,-1.974 -3.948,-4.2 -5.649,-6.531 -0.987,-1.344 -1.953,-2.709 -2.793,-4.137 -4.347,-7.308 -6.783,-15.75 -6.993,-24.255 -0.063,-2.877 0.105,-5.838 0.525,-8.694 0.357,-2.289 0.945,-4.599 1.638,-6.825 2.31,-7.329 6.174,-14.112 11.487,-19.698 3.738,-3.906 8.043,-7.182 12.789,-9.786 0.945,-0.525 1.89,-1.05 2.877,-1.491 2.436,-1.113 4.956,-1.995 7.518,-2.709 1.911,-0.525 3.822,-0.987 5.775,-1.302 1.995,-0.315 4.011,-0.441 6.027,-0.504 z m 4.032,26.712 c 0.042,2.478 0.21,4.935 0.315,7.413 0.021,0.609 0.063,1.218 0.084,1.827 0.021,0.336 0.042,0.714 0,1.05 -0.063,0.483 -0.525,1.05 -0.756,1.47 -0.252,0.462 -0.483,0.945 -0.693,1.407 -0.378,0.819 -0.693,1.68 -1.05,2.499 -0.903,2.079 -1.806,4.137 -2.709,6.216 -0.441,1.008 -0.882,1.995 -1.344,2.982 -0.273,0.588 -0.504,1.26 -0.987,1.743 -0.567,0.567 -1.407,0.651 -2.163,0.63 -0.609,-0.021 -1.197,-0.126 -1.806,-0.168 -1.743,-0.126 -3.486,-0.273 -5.229,-0.399 -1.953,-0.147 -3.885,-0.336 -5.838,-0.504 -1.26,-0.105 -2.583,-0.168 -3.801,-0.462 0.231,1.344 0.462,2.667 0.84,3.99 1.323,4.473 3.927,8.442 7.455,11.487 0.798,0.693 1.659,1.113 1.701,2.31 0.021,0.42 -0.021,0.714 -0.189,1.092 l -0.042,0.063 c -0.231,0.483 -0.693,0.861 -1.218,1.008 -0.42,0.126 -0.903,0.168 -1.323,0.021 l -0.084,-0.021 c -0.735,-0.273 -1.449,-0.945 -2.058,-1.47 -3.171,-2.751 -5.586,-6.09 -7.308,-9.912 -0.924,-2.037 -1.575,-4.242 -1.974,-6.447 -0.126,-0.756 -0.273,-1.533 -0.315,-2.31 l -6.468,-0.021 c 0.042,1.638 0.294,3.276 0.651,4.872 0.924,4.158 2.541,8.316 4.935,11.844 0.861,1.281 1.89,2.478 2.877,3.675 0.336,0.399 0.714,0.777 1.008,1.218 0.126,0.189 0.21,0.441 0.252,0.672 0.105,0.672 -0.063,1.323 -0.525,1.806 -0.441,0.441 -1.071,0.693 -1.701,0.693 -0.567,0 -1.008,-0.126 -1.428,-0.546 -0.672,-0.672 -1.281,-1.407 -1.89,-2.142 -1.176,-1.428 -2.331,-2.919 -3.276,-4.515 -1.932,-3.15 -3.318,-6.699 -4.242,-10.332 -0.525,-2.016 -0.903,-4.053 -1.029,-6.132 -0.021,-0.231 -0.021,-0.483 -0.042,-0.714 0,-0.084 0,-0.378 -0.021,-0.378 -0.042,-0.021 -0.483,-0.021 -0.567,-0.021 l -5.985,0.021 -0.315,0.021 c -0.252,0.378 0.567,5.502 0.714,6.237 0.294,1.407 0.588,2.814 1.008,4.2 2.499,8.505 7.539,16.38 14.322,22.134 1.512,1.281 3.192,2.478 4.872,3.57 7.203,4.683 13.692,6.027 15.456,6.384 1.617,0.315 3.759,0.651 6.321,0.756 -0.084,-16.317 -0.168,-26.775 -0.252,-28.329 -0.063,-1.176 0.063,-2.352 0.042,-3.549 0,-0.105 0,-0.378 0.063,-0.735 0.105,-0.483 0.273,-0.819 0.42,-1.092 0.273,-0.504 0.462,-1.071 0.693,-1.596 0.63,-1.449 1.281,-2.919 1.911,-4.368 0.693,-1.575 1.386,-3.15 2.058,-4.725 0.567,-1.323 1.092,-2.688 1.743,-3.969 0.126,-0.231 0.252,-0.42 0.441,-0.609 0.441,-0.441 1.029,-0.756 1.659,-0.756 l 17.262,1.722 c -0.294,-2.142 -0.756,-4.179 -1.554,-6.195 -1.47,-3.78 -4.074,-7.266 -7.308,-9.702 -1.407,-1.05 -2.856,-2.016 -4.431,-2.793 -2.268,-1.134 -4.704,-1.806 -7.182,-2.121 z m -0.483,-22.323 v 6.804 c 1.449,0.147 2.919,0.273 4.347,0.525 4.935,0.882 9.765,2.73 13.986,5.418 1.218,0.777 2.373,1.659 3.507,2.562 2.016,1.638 3.969,3.444 5.628,5.46 3.801,4.578 6.678,10.185 7.98,16.002 0.483,2.163 0.735,4.389 0.924,6.594 l 6.867,0.021 c -0.084,-2.415 -0.462,-4.893 -0.966,-7.266 -0.273,-1.218 -0.525,-2.436 -0.882,-3.633 -2.31,-7.728 -6.846,-14.91 -12.768,-20.391 -1.26,-1.176 -2.583,-2.226 -3.969,-3.234 -1.701,-1.26 -3.486,-2.457 -5.355,-3.465 -5.859,-3.276 -12.579,-5.166 -19.299,-5.397 z m 36.456,47.838 c -0.294,3.759 -1.029,7.623 -2.352,11.172 -1.365,3.717 -3.339,7.224 -5.754,10.353 -1.407,1.827 -2.919,3.57 -4.683,5.061 -5.691,4.872 -12.579,8.547 -20.055,9.597 -1.197,0.168 -2.415,0.315 -3.612,0.315 l 0.063,6.867 5.943,-0.714 c 1.554,-0.294 3.108,-0.609 4.641,-1.071 9.933,-2.961 18.816,-9.408 24.675,-17.976 2.709,-3.948 4.725,-8.316 6.111,-12.915 0.294,-1.008 0.588,-1.995 0.819,-3.003 0.546,-2.541 0.861,-5.082 1.05,-7.665 z m -41.958,-47.817 c -11.844,0.756 -23.226,6.615 -31.038,15.519 -2.856,3.234 -5.103,6.804 -6.93,10.71 -2.541,5.418 -4.095,11.067 -4.347,17.073 l 1.029,0.021 h 5.817 c 0.378,-8.211 3.675,-16.317 8.946,-22.596 1.197,-1.428 2.541,-2.751 3.927,-4.011 0.966,-0.861 1.974,-1.659 3.024,-2.415 4.746,-3.486 10.185,-5.922 15.981,-6.972 1.533,-0.273 3.066,-0.483 4.641,-0.525 l -0.042,-6.825 z m 30.975,47.796 c -0.147,1.575 -0.483,3.15 -0.882,4.683 -0.504,1.89 -1.155,3.759 -2.037,5.502 -0.483,0.966 -1.092,1.911 -1.68,2.835 -1.281,2.016 -2.814,3.927 -4.662,5.481 -2.604,2.184 -5.544,4.179 -8.736,5.418 -2.394,0.924 -4.977,1.491 -7.539,1.659 l 0.042,6.657 c 14.364,-3.57 24.003,-11.34 27.3,-16.947 3.171,-5.376 4.2,-11.193 4.2,-11.193 0.252,-1.344 0.315,-2.709 0.462,-4.074 z m -25.515,-36.582 c 0.021,0.777 0,6.384 0.126,6.615 1.176,0.105 2.352,0.252 3.528,0.504 4.242,0.945 8.127,2.961 11.508,5.67 1.512,1.218 2.919,2.541 4.158,4.032 3.549,4.305 5.67,9.744 6.195,15.267 l 6.531,0.021 c -0.126,-1.407 -0.252,-2.814 -0.504,-4.2 -1.407,-7.602 -5.523,-14.679 -11.424,-19.677 -4.326,-3.675 -9.66,-6.468 -15.246,-7.623 -1.638,-0.336 -3.255,-0.483 -4.872,-0.609 z m -5.418,0.147 c -6.825,0.462 -13.524,3.507 -18.753,7.875 -1.344,1.113 -2.667,2.331 -3.801,3.654 -3.99,4.578 -6.741,10.038 -7.917,16.023 -0.294,1.449 -0.441,2.94 -0.546,4.41 h 0.882 l 5.628,0.042 c 0.504,-6.993 4.011,-13.944 9.324,-18.522 3.822,-3.297 8.19,-5.628 13.167,-6.615 0.966,-0.189 1.974,-0.378 2.961,-0.441 v -6.447 z m 1.323,10.899 c -5.817,0.357 -11.55,3.255 -15.414,7.623 -3.339,3.78 -5.439,8.421 -5.901,13.461 l 0.084,0.105 c 2.898,-0.777 5.775,-1.617 8.652,-2.499 1.281,-0.399 2.625,-0.714 3.864,-1.218 l 8.778,-17.388 z m 25.011,25.41 c -2.52,0.63 -4.977,1.449 -7.455,2.163 -1.554,0.441 -3.213,0.756 -4.725,1.302 -0.231,0.084 -0.315,0.105 -0.441,0.315 l -8.358,17.325 0.042,0.063 0.147,0.021 c 6.174,-0.525 11.634,-3.717 15.582,-8.4 2.499,-2.961 4.158,-6.678 4.956,-10.458 0.147,-0.735 0.357,-1.554 0.357,-2.31 -0.021,0 -0.063,-0.021 -0.105,-0.021 z"
   stroke-linecap="round"
   id="path16" /><path
   d="m 470.03198,186.12703 v 1.392 l 2.976,0.288 c 1.152,0.144 1.248,0.816 1.056,1.824 -0.288,1.776 -1.344,5.712 -2.544,10.224 l -3.552,13.728 h -0.144 l -8.112,-26.592 h -3.6 l -7.344,26.592 h -0.096 c -2.496,-8.256 -4.608,-16.32 -6.528,-23.856 -0.384,-1.584 -0.144,-1.872 1.008,-1.968 l 2.4,-0.24 v -1.392 h -12.048 v 1.392 c 2.832,0.144 3.264,0.288 4.08,3.12 l 3.792,13.392 4.08,15.312 h 3.696 l 7.536,-26.592 h 0.096 c 2.928,9.168 5.568,18 8.016,26.592 h 3.648 l 4.8,-17.136 c 1.536,-5.424 2.64,-9.648 3.312,-11.472 0.96,-2.784 1.488,-3.024 4.464,-3.216 v -1.392 z m 10.51202,10.32 v 1.2 l 1.824,0.24 c 1.248,0.192 1.536,0.432 1.536,2.16 v 15.12 c 0,2.448 -0.144,2.544 -3.6,2.784 v 1.392 h 11.712 v -1.392 c -3.408,-0.24 -3.6,-0.336 -3.6,-2.784 v -19.632 l -0.336,-0.288 z m 5.568,-11.424 c -1.728,0 -2.928,1.248 -2.928,2.976 0,1.68 1.2,2.88 2.928,2.88 1.776,0 2.88,-1.2 2.928,-2.88 0,-1.728 -1.152,-2.976 -2.928,-2.976 z m 15.69601,-1.008 -0.336,-0.288 -7.536,1.2 v 1.2 l 1.824,0.192 c 1.248,0.144 1.536,0.384 1.536,2.208 v 26.64 c 0,2.448 -0.144,2.544 -3.6,2.784 v 1.392 h 11.712 v -1.392 c -3.408,-0.24 -3.6,-0.336 -3.6,-2.784 z m 13.39197,0 -0.336,-0.288 -7.536,1.2 v 1.2 l 1.824,0.192 c 1.248,0.144 1.536,0.384 1.536,2.208 v 26.64 c 0,2.448 -0.144,2.544 -3.6,2.784 v 1.392 h 11.712 v -1.392 c -3.408,-0.24 -3.6,-0.336 -3.6,-2.784 z m 25.48797,22.704 c 1.008,0 1.92,-0.24 1.92,-1.824 0,-2.832 -0.912,-9.648 -9.696,-9.648 -7.488,0 -11.04,5.328 -11.04,12.528 0,7.584 3.264,12.24 11.088,12.144 5.328,-0.048 8.064,-2.976 9.36,-6.768 l -1.44,-0.768 c -1.344,2.784 -3.168,5.088 -6.96,5.088 -5.952,0 -7.152,-5.76 -7.056,-10.752 z m -13.776,-1.824 c 0,-1.968 0.72,-7.968 5.712,-7.968 4.464,0 4.992,4.56 4.992,6.432 0,0.912 -0.288,1.536 -1.632,1.536 z m 19.056,-8.448 v 1.2 l 1.824,0.24 c 1.248,0.192 1.536,0.432 1.536,2.16 v 15.12 c 0,2.448 -0.144,2.544 -3.6,2.784 v 1.392 h 11.712 v -1.392 c -3.408,-0.24 -3.6,-0.336 -3.6,-2.784 v -11.232 c 0,-1.2 0.048,-1.872 0.384,-2.544 0.912,-1.92 3.024,-3.552 5.664,-3.552 4.128,0 4.608,3.024 4.608,6 v 11.328 c 0,2.448 -0.144,2.544 -3.6,2.784 v 1.392 h 11.712 v -1.392 c -3.408,-0.24 -3.6,-0.336 -3.6,-2.784 v -11.232 c 0,-1.2 0.048,-1.872 0.336,-2.64 0.72,-1.92 2.784,-3.456 5.472,-3.456 3.024,-0.096 4.848,1.824 4.848,6 v 11.328 c 0,2.448 -0.144,2.544 -3.6,2.784 v 1.392 h 11.712 v -1.392 c -3.408,-0.24 -3.6,-0.336 -3.6,-2.784 v -12.288 c 0,-4.848 -2.592,-7.632 -7.152,-7.632 -3.936,0 -6.768,2.64 -8.448,3.696 -1.152,-2.256 -2.976,-3.696 -6.336,-3.696 -3.696,0 -6.72,2.4 -8.4,3.648 l -0.432,-3.648 z m 60.14401,6.048 v -5.616 c -1.584,-1.152 -4.032,-1.632 -6.192,-1.632 -5.184,0 -8.688,2.448 -8.736,7.008 0.048,3.984 3.264,5.76 7.248,6.96 2.16,0.672 5.184,1.776 5.184,5.04 0,2.448 -1.92,3.984 -4.464,3.984 -3.888,0 -6.048,-2.832 -7.008,-6.912 h -1.392 l 0.48,6.288 c 1.728,1.536 4.656,2.304 7.488,2.304 5.712,0 8.976,-3.024 8.976,-7.104 0,-4.224 -2.592,-6.144 -7.536,-7.68 -1.968,-0.624 -5.136,-1.632 -5.136,-4.32 0.048,-2.496 1.92,-3.888 4.32,-3.888 3.408,0 5.04,2.64 5.376,5.568 z m 24.48004,4.224 c 1.008,0 1.92,-0.24 1.92,-1.824 0,-2.832 -0.912,-9.648 -9.696,-9.648 -7.488,0 -11.04,5.328 -11.04,12.528 0,7.584 3.264,12.24 11.088,12.144 5.328,-0.048 8.064,-2.976 9.36,-6.768 l -1.44,-0.768 c -1.344,2.784 -3.168,5.088 -6.96,5.088 -5.952,0 -7.152,-5.76 -7.056,-10.752 z m -13.776,-1.824 c 0,-1.968 0.72,-7.968 5.712,-7.968 4.464,0 4.992,4.56 4.992,6.432 0,0.912 -0.288,1.536 -1.632,1.536 z m 42.672,-2.016 c 0,-4.848 -2.64,-7.632 -7.056,-7.632 -3.552,0 -5.76,1.728 -8.736,3.648 l -0.672,-3.648 -7.152,1.2 v 1.2 l 1.824,0.24 c 1.248,0.192 1.536,0.432 1.536,2.16 v 15.12 c 0,2.448 -0.144,2.544 -3.6,2.784 v 1.392 h 11.712 v -1.392 c -3.408,-0.24 -3.6,-0.336 -3.6,-2.784 v -11.232 c 0,-1.2 0.096,-1.872 0.48,-2.64 1.008,-1.872 3.168,-3.456 5.712,-3.456 3.264,0 5.04,1.824 5.04,6 v 11.328 c 0,2.448 -0.144,2.544 -3.6,2.784 v 1.392 h 11.712 v -1.392 c -3.408,-0.24 -3.6,-0.336 -3.6,-2.784 z m 21.93597,-0.384 v -5.616 c -1.584,-1.152 -4.032,-1.632 -6.192,-1.632 -5.184,0 -8.688,2.448 -8.736,7.008 0.048,3.984 3.264,5.76 7.248,6.96 2.16,0.672 5.184,1.776 5.184,5.04 0,2.448 -1.92,3.984 -4.464,3.984 -3.888,0 -6.048,-2.832 -7.008,-6.912 h -1.392 l 0.48,6.288 c 1.728,1.536 4.656,2.304 7.488,2.304 5.712,0 8.976,-3.024 8.976,-7.104 0,-4.224 -2.592,-6.144 -7.536,-7.68 -1.968,-0.624 -5.136,-1.632 -5.136,-4.32 0.048,-2.496 1.92,-3.888 4.32,-3.888 3.408,0 5.04,2.64 5.376,5.568 z"
   id="text1"
   style="font-size:48px;font-family:Utopia;-inkscape-font-specification:Utopia;letter-spacing:0px;fill:#333333"
   aria-label="Willemsens Technieken" /></svg>
